<?xml version="1.0" standalone="no"?>
<!DOCTYPE svg PUBLIC "-//W3C//DTD SVG 20010904//EN"
 "http://www.w3.org/TR/2001/REC-SVG-20010904/DTD/svg10.dtd">
<svg version="1.0" xmlns="http://www.w3.org/2000/svg"
 width="700.000000pt" height="700.000000pt" viewBox="0 0 700.000000 700.000000"
 preserveAspectRatio="xMidYMid meet">
<metadata>
Created by potrace 1.11, written by Peter Selinger 2001-2013
</metadata>
<g transform="translate(0.000000,700.000000) scale(0.100000,-0.100000)"
fill="#000000" stroke="none">
<path d="M3388 6995 c-2 -2 -23 -6 -48 -9 -295 -35 -600 -234 -767 -501 -346
-551 -130 -1285 460 -1565 85 -41 226 -84 310 -95 l47 -6 -1 -1022 0 -1022
-58 170 c-98 288 -162 440 -295 705 -236 468 -492 828 -814 1145 l-123 121 29
65 c41 91 56 160 55 269 0 303 -199 560 -493 636 -126 33 -310 16 -427 -38
-269 -124 -420 -401 -379 -698 29 -211 181 -410 381 -499 103 -46 276 -68 375
-48 103 20 179 52 261 107 l57 39 108 -107 c142 -140 182 -184 291 -322 138
-177 287 -400 386 -581 81 -149 141 -266 170 -335 19 -43 46 -104 60 -134 124
-270 272 -745 333 -1068 23 -122 23 -124 29 -152 6 -30 11 -69 20 -134 3 -27
9 -54 12 -60 4 -7 2 -8 -5 -1 -5 6 -24 36 -41 69 -101 187 -289 402 -439 499
-90 59 -206 113 -297 137 -91 25 -115 28 -207 29 -51 1 -78 5 -78 12 0 18 -87
138 -139 192 -161 168 -401 270 -631 268 -80 -1 -155 -9 -195 -21 -136 -42
-173 -57 -247 -101 -537 -320 -579 -1059 -83 -1449 98 -77 255 -144 390 -167
75 -13 234 -8 314 10 457 98 756 529 687 990 l-8 47 49 -4 c63 -5 193 -49 263
-88 237 -134 437 -404 551 -741 31 -92 83 -299 93 -369 25 -165 24 -153 41
-397 l5 -74 -82 -79 c-187 -181 -381 -295 -588 -347 -183 -46 -292 -55 -622
-55 l-238 1 0 -110 0 -109 323 5 c177 3 339 7 359 10 20 3 56 9 80 12 69 9
249 56 298 77 223 97 408 220 542 360 15 15 31 28 35 28 4 0 22 -12 38 -28
287 -263 525 -386 849 -438 121 -20 744 -33 755 -16 3 5 5 55 3 110 l-3 99
-237 0 c-273 -1 -397 7 -537 34 -261 50 -463 162 -687 381 -66 64 -68 68 -64
106 3 21 8 118 11 214 3 97 8 186 10 199 3 13 8 38 10 54 39 226 153 517 280
711 179 274 429 504 705 645 36 18 67 34 70 34 3 1 19 7 35 14 153 64 338 106
464 106 l54 0 -2 -77 c-3 -86 26 -223 61 -293 82 -164 226 -289 399 -346 84
-28 248 -35 337 -14 338 79 554 394 507 738 -9 71 -55 189 -99 256 -184 282
-536 379 -840 232 -97 -47 -203 -140 -256 -225 l-35 -55 -70 3 c-218 9 -502
-64 -745 -192 -360 -189 -652 -482 -856 -855 l-45 -82 5 120 c3 66 10 147 16
180 6 33 13 78 16 100 13 101 53 285 93 422 110 383 303 722 541 952 75 73
204 184 248 214 l41 29 65 -65 c68 -68 172 -142 241 -172 22 -9 49 -21 60 -26
76 -33 186 -53 300 -53 135 -1 182 5 275 35 368 117 613 453 613 839 0 341
-208 657 -523 795 -109 48 -195 66 -321 70 -212 6 -391 -49 -549 -169 -311
-234 -430 -626 -303 -994 l25 -73 -22 -19 c-13 -11 -26 -20 -30 -20 -3 0 -15
-8 -26 -18 -10 -9 -46 -39 -79 -67 -125 -104 -292 -281 -391 -415 -94 -127
-207 -329 -270 -479 l-23 -56 -1 943 c0 747 3 942 13 943 45 2 169 30 232 51
435 148 736 569 735 1028 0 58 -2 116 -4 130 -3 14 -7 43 -10 65 -17 127 -90
304 -176 429 -166 240 -417 404 -700 457 -59 11 -304 22 -312 14z"/>
</g>
</svg>
