<svg style="position: absolute; width: 0; height: 0; overflow: hidden;" version="1.1" xmlns="http://www.w3.org/2000/svg" xmlns:xlink="http://www.w3.org/1999/xlink">
<defs>
<symbol id="icon-logo1" viewBox="0 0 64 64">
    <title>logo1</title>
    <path d="M32.997 58.082c0.843-10.392-1.455-19.639-4.825-26.671-3.386-7.050-7.924-12.125-11.673-14.278l-0.996 1.734c3.285 1.887 7.589 6.585 10.867 13.41 3.292 6.844 5.478 15.575 4.635 25.641l1.993 0.164zM32.997 57.926c-0.727-9.826 0.226-16.257 2.169-20.755 1.926-4.517 4.834-7.1 8.368-9.326l-1.068-1.691c-3.672 2.322-6.998 5.332-9.136 10.224-2.122 4.912-3.066 11.707-2.327 21.695l1.995-0.148zM32.999 57.953c-0.354-7.555 2.945-12.825 6.897-15.826 2.001-1.528 4.072-2.432 6.043-2.796 1.94-0.365 3.526-0.13 4.52 0.509l1.082-1.682c-1.581-1.017-3.75-1.21-5.971-0.793-2.19 0.418-4.685 1.508-6.883 3.168-4.445 3.375-8.072 9.261-7.685 17.512l1.998-0.094zM33 57.981c-0.141-7.601-2.45-12.507-5.431-15.194-2.955-2.664-6.613-3.135-9.085-1.643l1.033 1.712c1.535-0.926 4.238-0.815 6.713 1.416 2.449 2.208 4.636 6.512 4.771 13.746l2-0.037zM33 58v-41h-2v41h2zM16.976 64c3.318 0.081 6.037 0.11 8.507-0.543 2.558-0.687 4.809-2.101 7.256-4.782l-1.477-1.348c-2.25 2.466-4.186 3.632-6.297 4.199-2.199 0.6-4.632 0.556-7.94 0.475l-0.049 2zM46.976 62c-3.308 0.080-5.741 0.125-7.94-0.475-2.111-0.567-4.047-1.733-6.298-4.199l-1.477 1.348c2.447 2.681 4.698 4.096 7.256 4.782 2.47 0.653 5.189 0.624 8.507 0.543l-0.048-2z"></path>
    <path d="M52 24c0 2.209-1.791 4-4 4v4c4.418 0 8-3.582 8-8h-4zM48 28c-2.209 0-4-1.791-4-4h-4c0 4.418 3.582 8 8 8v-4zM44 24c0-2.209 1.791-4 4-4v-4c-4.418 0-8 3.582-8 8h4zM48 20c2.209 0 4 1.791 4 4h4c0-4.418-3.582-8-8-8v4z"></path>
    <path d="M56 40c0 1.105-0.895 2-2 2v4c3.314 0 6-2.686 6-6h-4zM54 42c-1.105 0-2-0.895-2-2h-4c0 3.314 2.686 6 6 6v-4zM52 40c0-1.105 0.895-2 2-2v-4c-3.314 0-6 2.686-6 6h4zM54 38c1.105 0 2 0.895 2 2h4c0-3.314-2.686-6-6-6v4z"></path>
    <path fill="#009688" style="fill: var(--color2, #009688)" d="M54 24c0 3.314-2.686 6-6 6s-6-2.686-6-6c0-3.314 2.686-6 6-6s6 2.686 6 6z"></path>
    <path fill="#9c27b0" style="fill: var(--color3, #9c27b0)" d="M58 40c0 2.209-1.791 4-4 4s-4-1.791-4-4c0-2.209 1.791-4 4-4s4 1.791 4 4z"></path>
    <path d="M38 10c0 3.314-2.686 6-6 6v4c5.523 0 10-4.477 10-10h-4zM32 16c-3.314 0-6-2.686-6-6h-4c0 5.523 4.477 10 10 10v-4zM26 10c0-3.314 2.686-6 6-6v-4c-5.523 0-10 4.477-10 10h4zM32 4c3.314 0 6 2.686 6 6h4c0-5.523-4.477-10-10-10v4z"></path>
    <path fill="#4caf50" style="fill: var(--color4, #4caf50)" d="M40 10c0 4.418-3.582 8-8 8s-8-3.582-8-8c0-4.418 3.582-8 8-8s8 3.582 8 8z"></path>
    <path d="M18 44c0 2.209-1.791 4-4 4v4c4.418 0 8-3.582 8-8h-4zM14 48c-2.209 0-4-1.791-4-4h-4c0 4.418 3.582 8 8 8v-4zM10 44c0-2.209 1.791-4 4-4v-4c-4.418 0-8 3.582-8 8h4zM14 40c2.209 0 4 1.791 4 4h4c0-4.418-3.582-8-8-8v4z"></path>
    <path fill="#009688" style="fill: var(--color2, #009688)" d="M20 44c0 3.314-2.686 6-6 6s-6-2.686-6-6c0-3.314 2.686-6 6-6s6 2.686 6 6z"></path>
    <path d="M16 16c0 1.105-0.895 2-2 2v4c3.314 0 6-2.686 6-6h-4zM14 18c-1.105 0-2-0.895-2-2h-4c0 3.314 2.686 6 6 6v-4zM12 16c0-1.105 0.895-2 2-2v-4c-3.314 0-6 2.686-6 6h4zM14 14c1.105 0 2 0.895 2 2h4c0-3.314-2.686-6-6-6v4z"></path>
    <path fill="#9c27b0" style="fill: var(--color3, #9c27b0)" d="M18 16c0 2.209-1.791 4-4 4s-4-1.791-4-4c0-2.209 1.791-4 4-4s4 1.791 4 4z"></path>
</symbol>
<symbol id="icon-magnifying-glass" viewBox="0 0 64 64">
    <title>magnifying-glass</title>
    <path d="M62.577 55.616l-13.192-13.192c3.179-4.589 4.77-9.706 4.77-15.346 0-3.667-0.712-7.173-2.136-10.519s-3.346-6.231-5.769-8.654-5.307-4.346-8.653-5.769c-3.347-1.423-6.853-2.135-10.52-2.135s-7.173 0.712-10.519 2.135c-3.347 1.423-6.231 3.346-8.654 5.769s-4.346 5.308-5.769 8.654c-1.423 3.346-2.135 6.853-2.135 10.519s0.712 7.172 2.135 10.519c1.423 3.346 3.346 6.23 5.769 8.653s5.308 4.346 8.654 5.77c3.346 1.423 6.853 2.134 10.519 2.134 5.642 0 10.757-1.591 15.347-4.77l13.192 13.154c0.923 0.974 2.075 1.462 3.461 1.462 1.333 0 2.488-0.487 3.461-1.462s1.461-2.128 1.461-3.461c0-1.358-0.474-2.513-1.423-3.461zM39.25 39.25c-3.372 3.372-7.429 5.058-12.173 5.058s-8.801-1.687-12.173-5.058c-3.372-3.372-5.058-7.429-5.058-12.173s1.686-8.801 5.058-12.173c3.371-3.372 7.429-5.058 12.173-5.058s8.801 1.687 12.173 5.058c3.372 3.371 5.058 7.429 5.058 12.173s-1.687 8.801-5.058 12.173z"></path>
</symbol>
<symbol id="icon-event" viewBox="0 0 24 24">
    <title>event</title>
    <path d="M17 12h-5v5h5v-5zM16 1v2H8V1H6v2H5c-1.11 0-1.99.9-1.99 2L3 19c0 1.1.89 2 2 2h14c1.1 0 2-.9 2-2V5c0-1.1-.9-2-2-2h-1V1h-2zm3 18H5V8h14v11z"/>
    <path d="M0 0h24v24H0z" fill="none"/>
</symbol>
<symbol id="icon-price-euro" viewBox="0 0 24 24">
    <title>price</title>
    <path d="M15 18.5c-2.51 0-4.68-1.42-5.76-3.5H15v-2H8.58c-.05-.33-.08-.66-.08-1s.03-.67.08-1H15V9H9.24C10.32 6.92 12.5 5.5 15 5.5c1.61 0 3.09.59 4.23 1.57L21 5.3C19.41 3.87 17.3 3 15 3c-3.92 0-7.24 2.51-8.48 6H3v2h3.06c-.04.33-.06.66-.06 1 0 .34.02.67.06 1H3v2h3.52c1.24 3.49 4.56 6 8.48 6 2.31 0 4.41-.87 6-2.3l-1.78-1.77c-1.13.98-2.6 1.57-4.22 1.57z"/>
</symbol>
<symbol id="icon-location" viewBox="0 0 24 24">
    <title>location</title>
    <path d="M12 2C8.13 2 5 5.13 5 9c0 5.25 7 13 7 13s7-7.75 7-13c0-3.87-3.13-7-7-7zm0 9.5c-1.38 0-2.5-1.12-2.5-2.5s1.12-2.5 2.5-2.5 2.5 1.12 2.5 2.5-1.12 2.5-2.5 2.5z"/>
    <path d="M0 0h24v24H0z" fill="none"/>
</symbol>
<symbol id="icon-social-twitter" viewBox="0 0 48 48">
    <!-- From https://icomoon.io/ -->
    <title>twitter</title>
    <path d="M48 10.613c-1.763 0.787-3.666 1.313-5.653 1.547 2.034-1.219 3.591-3.15 4.331-5.447-1.903 1.125-4.012 1.95-6.253 2.391-1.8-1.912-4.359-3.103-7.191-3.103-5.438 0-9.844 4.406-9.844 9.844 0 0.769 0.084 1.519 0.253 2.241-8.184-0.413-15.441-4.331-20.297-10.294-0.844 1.453-1.331 3.15-1.331 4.95 0 3.413 1.734 6.431 4.378 8.194-1.613-0.047-3.131-0.497-4.463-1.228 0 0.038 0 0.084 0 0.122 0 4.772 3.394 8.756 7.903 9.656-0.825 0.225-1.697 0.347-2.597 0.347-0.637 0-1.247-0.066-1.856-0.178 1.256 3.909 4.894 6.759 9.197 6.844-3.375 2.644-7.612 4.219-12.234 4.219-0.797 0-1.575-0.047-2.353-0.141 4.369 2.803 9.544 4.425 15.103 4.425 18.113 0 28.022-15.009 28.022-28.022 0-0.431-0.009-0.853-0.028-1.275 1.922-1.378 3.591-3.113 4.912-5.091z"></path>
</symbol>
<symbol id="icon-social-facebook" viewBox="0 0 48 48">
    <!-- From https://icomoon.io/ -->
    <title>facebook</title>
    <path d="M28.5 9h7.5v-9h-7.5c-5.79 0-10.5 4.71-10.5 10.5v4.5h-6v9h6v24h9v-24h7.5l1.5-9h-9v-4.5c0-0.813 0.687-1.5 1.5-1.5z"></path>
</symbol>

</defs>
</svg>
