<svg style="position: absolute; width: 0; height: 0; overflow: hidden;" version="1.1" xmlns="http://www.w3.org/2000/svg"
    xmlns:xlink="http://www.w3.org/1999/xlink">
    <defs>
        <symbol id="icon-logo" viewBox="0 0 32 32">
            <title>logo</title>
            <path d="M29.793 21.337c-1.846-1.288-3.99-2.32-6.29-2.98l-0.153-0.037 0.389-1.377 2.032 0.431h0.069c0.182 0 0.329-0.147 0.329-0.329v0c-0.053-1.468-1.256-2.639-2.732-2.639-1.075 0-2.005 0.62-2.452 1.523l-0.007 0.016c-0.021 0.042-0.034 0.093-0.034 0.145 0 0.158 0.111 0.29 0.259 0.322l0.002 0 1.887 0.402-0.379 1.341c-1.857-0.492-3.988-0.774-6.186-0.774-0.025 0-0.051 0-0.076 0h-0.095c-1.095 0.015-2.153 0.134-3.177 0.348l0.107-0.019c0.145-1.505 0.359-6.258-2.283-8.402 0.81 0 1.92 0.161 2.342 1.024 0.055 0.111 0.167 0.185 0.296 0.185 0.182 0 0.33-0.148 0.33-0.33 0-0.053-0.012-0.103-0.034-0.147l0.001 0.002c-0.586-1.196-2.012-1.403-2.991-1.393 1.222-0.715 3.073-0.399 3.096-0.395 0.017 0.003 0.037 0.005 0.058 0.005 0.185 0 0.334-0.15 0.334-0.334 0-0.164-0.118-0.301-0.275-0.329l-0.002-0c-0.115-0.020-2.563-0.438-3.982 0.791 0.040-0.85 1.070-1.897 1.548-2.306 0.074-0.061 0.121-0.153 0.121-0.255 0-0.182-0.148-0.33-0.33-0.33-0.080 0-0.153 0.028-0.21 0.075l0.001-0c-0.089 0.072-1.933 1.604-1.785 3.024-1.933-0.25-3.458 1.377-3.531 1.453-0.063 0.060-0.102 0.144-0.102 0.238 0 0.182 0.147 0.329 0.329 0.329 0.103 0 0.196-0.048 0.256-0.122l0-0.001s1.090-1.163 2.464-1.262c-0.823 0.507-1.924 1.377-2.141 2.493-0.004 0.019-0.006 0.040-0.006 0.062 0 0.16 0.113 0.293 0.264 0.323l0.002 0h0.063c0.002 0 0.004 0 0.006 0 0.16 0 0.293-0.114 0.323-0.265l0-0.002c0.161-0.837 1.024-1.541 1.733-1.976-0.204 0.502-0.323 1.085-0.323 1.695 0 0.364 0.042 0.717 0.122 1.056l-0.006-0.031c0.034 0.148 0.165 0.257 0.321 0.257 0.003 0 0.006-0 0.008-0h0.072c0.149-0.034 0.258-0.165 0.258-0.322 0-0.025-0.003-0.049-0.008-0.073l0 0.002c-0.060-0.26-0.094-0.558-0.094-0.864 0-0.777 0.22-1.503 0.601-2.118l-0.010 0.017c3.011 1.759 2.615 7.197 2.493 8.363q-0.359 0.079-0.721 0.171c-0.070-0.893-0.812-1.592-1.718-1.592-0.562 0-1.061 0.269-1.375 0.685l-0.003 0.004c-0.206-0.096-0.447-0.152-0.701-0.152-0.003 0-0.005 0-0.008 0h0c-0.885 0.001-1.615 0.666-1.719 1.523l-0.001 0.008c-0.639 0.262-1.080 0.878-1.080 1.598 0 0.001 0 0.002 0 0.003v-0c0 0.030 0 0.056 0 0.086l-0.853 0.313-2.059 0.748c-0.294 0.106-0.501 0.383-0.501 0.708 0 0.415 0.336 0.751 0.751 0.751 0.002 0 0.005 0 0.007-0h26.719c0.003 0 0.006 0 0.010 0 0.415 0 0.751-0.336 0.751-0.751 0-0.256-0.128-0.482-0.324-0.618l-0.003-0.002zM23.927 15.125c0.75 0.187 1.331 0.764 1.522 1.497l0.003 0.014-3.653-0.774c0.386-0.486 0.977-0.796 1.64-0.796 0.173 0 0.341 0.021 0.502 0.061l-0.014-0.003zM24.348 19.331l-1.229 1.219-2.839-0.688 1.126-1.317c1.158 0.231 2.145 0.503 3.103 0.836l-0.161-0.049zM6.776 19.061c0.145-0.037 0.25-0.166 0.25-0.32 0-0.003-0-0.007-0-0.010v0.001c0.001-0.005 0.001-0.012 0.001-0.018s-0-0.013-0.001-0.019l0 0.001c0.002-0.589 0.478-1.067 1.067-1.070h0c0.24 0.001 0.461 0.081 0.638 0.216l-0.003-0.002c0.054 0.040 0.122 0.064 0.196 0.064 0.131 0 0.244-0.077 0.297-0.188l0.001-0.002c0.172-0.368 0.539-0.619 0.964-0.619 0.001 0 0.003 0 0.004 0h-0c0.593 0 1.074 0.481 1.074 1.074v0s0 0.020 0 0.030c-1.663 0.455-3.426 1.067-5.293 1.746 0.065-0.433 0.383-0.778 0.796-0.881l0.007-0.002zM29.46 21.979c-0.009 0.038-0.043 0.066-0.083 0.066-0.003 0-0.006-0-0.009-0.001l0 0h-26.732c-0.003 0-0.007 0.001-0.011 0.001-0.051 0-0.092-0.041-0.092-0.092 0-0.043 0.030-0.079 0.070-0.090l0.001-0 2.059-0.748c2.5-0.916 4.812-1.762 6.947-2.332h0.020c1.41-0.424 3.036-0.691 4.717-0.737l0.026-0.001h0.096c0.008 0 0.016 0 0.025 0 1.47 0 2.91 0.127 4.31 0.371l-0.149-0.021-1.229 1.449c-0.049 0.057-0.078 0.132-0.078 0.213 0 0.155 0.107 0.285 0.251 0.32l0.002 0 3.541 0.856c0.012 0.002 0.026 0.002 0.040 0.002s0.028-0.001 0.041-0.003l-0.002 0c0.090-0 0.171-0.037 0.231-0.096l1.581-1.568c1.673 0.642 3.118 1.418 4.446 2.349l-0.065-0.043c0.027 0.015 0.045 0.043 0.045 0.075 0 0.011-0.002 0.021-0.006 0.031l0-0.001z"></path>
            <path d="M7.178 24.43c0-0.182-0.147-0.329-0.329-0.329v0h-3.775c-0.182 0-0.329 0.147-0.329 0.329s0.147 0.329 0.329 0.329v0h3.775c0.182 0 0.329-0.147 0.329-0.329v0z"></path>
            <path d="M10.498 25.846h-3.649c-0.182 0-0.329 0.147-0.329 0.329s0.147 0.329 0.329 0.329v0h3.649c0.182 0 0.329-0.147 0.329-0.329s-0.147-0.329-0.329-0.329v0z"></path>
            <path d="M12.774 24.1h-2.592c-0.182 0-0.329 0.147-0.329 0.329s0.147 0.329 0.329 0.329v0h2.592c0.182 0 0.329-0.147 0.329-0.329s-0.147-0.329-0.329-0.329v0z"></path>
            <path d="M15.999 25.846h-2.062c-0.182 0-0.329 0.147-0.329 0.329s0.147 0.329 0.329 0.329v0h2.062c0.182 0 0.329-0.147 0.329-0.329s-0.147-0.329-0.329-0.329v0z"></path>
            <path d="M21.038 24.43c0-0.182-0.147-0.329-0.329-0.329v0h-3.017c-0.182 0-0.329 0.147-0.329 0.329s0.147 0.329 0.329 0.329v0h3.017c0.182 0 0.329-0.147 0.329-0.329v0z"></path>
            <path d="M22.823 25.846h-2.115c-0.182 0-0.329 0.147-0.329 0.329s0.147 0.329 0.329 0.329v0h2.115c0.182 0 0.329-0.147 0.329-0.329s-0.147-0.329-0.329-0.329v0z"></path>
            <path d="M25.788 24.417h-2.062c-0.182 0-0.329 0.147-0.329 0.329s0.147 0.329 0.329 0.329v0h2.062c0.182 0 0.329-0.147 0.329-0.329s-0.147-0.329-0.329-0.329v0z"></path>
            <path d="M28.222 25.846h-1.683c-0.182 0-0.329 0.147-0.329 0.329s0.147 0.329 0.329 0.329v0h1.693c0.182 0 0.329-0.147 0.329-0.329s-0.147-0.329-0.329-0.329v0z"></path>
        </symbol>
        <symbol id="icon-magnifying-glass" viewBox="0 0 32 32">
            <title>magnifying-glass</title>
            <path d="M31.289 27.808l-6.596-6.596c1.59-2.295 2.385-4.853 2.385-7.673 0-1.833-0.356-3.587-1.068-5.26s-1.673-3.115-2.885-4.327-2.654-2.173-4.326-2.885c-1.673-0.712-3.427-1.067-5.26-1.067s-3.587 0.356-5.26 1.067c-1.673 0.711-3.115 1.673-4.327 2.885s-2.173 2.654-2.885 4.327c-0.712 1.673-1.067 3.426-1.067 5.26s0.356 3.586 1.067 5.259c0.711 1.673 1.673 3.115 2.885 4.327s2.654 2.173 4.327 2.885c1.673 0.712 3.426 1.067 5.26 1.067 2.821 0 5.379-0.795 7.673-2.385l6.596 6.577c0.462 0.487 1.038 0.731 1.731 0.731 0.667 0 1.244-0.244 1.731-0.731s0.731-1.064 0.731-1.731c0-0.679-0.237-1.256-0.711-1.731zM19.625 19.625c-1.686 1.686-3.715 2.529-6.087 2.529s-4.4-0.843-6.086-2.529c-1.686-1.686-2.529-3.714-2.529-6.086s0.843-4.401 2.529-6.086c1.686-1.686 3.715-2.529 6.086-2.529s4.4 0.843 6.087 2.529c1.686 1.686 2.529 3.715 2.529 6.086s-0.843 4.4-2.529 6.086z"></path>
        </symbol>
    </defs>
</svg>

