<svg style="position: absolute; width: 0; height: 0; overflow: hidden;" version="1.1" xmlns="http://www.w3.org/2000/svg" xmlns:xlink="http://www.w3.org/1999/xlink">
<defs>
<symbol id="icon-logo1" viewBox="0 0 64 64">
    <title>logo1</title>
    <path d="M32.997 58.082c0.843-10.392-1.455-19.639-4.825-26.671-3.386-7.050-7.924-12.125-11.673-14.278l-0.996 1.734c3.285 1.887 7.589 6.585 10.867 13.41 3.292 6.844 5.478 15.575 4.635 25.641l1.993 0.164zM32.997 57.926c-0.727-9.826 0.226-16.257 2.169-20.755 1.926-4.517 4.834-7.1 8.368-9.326l-1.068-1.691c-3.672 2.322-6.998 5.332-9.136 10.224-2.122 4.912-3.066 11.707-2.327 21.695l1.995-0.148zM32.999 57.953c-0.354-7.555 2.945-12.825 6.897-15.826 2.001-1.528 4.072-2.432 6.043-2.796 1.94-0.365 3.526-0.13 4.52 0.509l1.082-1.682c-1.581-1.017-3.75-1.21-5.971-0.793-2.19 0.418-4.685 1.508-6.883 3.168-4.445 3.375-8.072 9.261-7.685 17.512l1.998-0.094zM33 57.981c-0.141-7.601-2.45-12.507-5.431-15.194-2.955-2.664-6.613-3.135-9.085-1.643l1.033 1.712c1.535-0.926 4.238-0.815 6.713 1.416 2.449 2.208 4.636 6.512 4.771 13.746l2-0.037zM33 58v-41h-2v41h2zM16.976 64c3.318 0.081 6.037 0.11 8.507-0.543 2.558-0.687 4.809-2.101 7.256-4.782l-1.477-1.348c-2.25 2.466-4.186 3.632-6.297 4.199-2.199 0.6-4.632 0.556-7.94 0.475l-0.049 2zM46.976 62c-3.308 0.080-5.741 0.125-7.94-0.475-2.111-0.567-4.047-1.733-6.298-4.199l-1.477 1.348c2.447 2.681 4.698 4.096 7.256 4.782 2.47 0.653 5.189 0.624 8.507 0.543l-0.048-2z"></path>
    <path d="M52 24c0 2.209-1.791 4-4 4v4c4.418 0 8-3.582 8-8h-4zM48 28c-2.209 0-4-1.791-4-4h-4c0 4.418 3.582 8 8 8v-4zM44 24c0-2.209 1.791-4 4-4v-4c-4.418 0-8 3.582-8 8h4zM48 20c2.209 0 4 1.791 4 4h4c0-4.418-3.582-8-8-8v4z"></path>
    <path d="M56 40c0 1.105-0.895 2-2 2v4c3.314 0 6-2.686 6-6h-4zM54 42c-1.105 0-2-0.895-2-2h-4c0 3.314 2.686 6 6 6v-4zM52 40c0-1.105 0.895-2 2-2v-4c-3.314 0-6 2.686-6 6h4zM54 38c1.105 0 2 0.895 2 2h4c0-3.314-2.686-6-6-6v4z"></path>
    <path fill="#009688" style="fill: var(--color2, #009688)" d="M54 24c0 3.314-2.686 6-6 6s-6-2.686-6-6c0-3.314 2.686-6 6-6s6 2.686 6 6z"></path>
    <path fill="#9c27b0" style="fill: var(--color3, #9c27b0)" d="M58 40c0 2.209-1.791 4-4 4s-4-1.791-4-4c0-2.209 1.791-4 4-4s4 1.791 4 4z"></path>
    <path d="M38 10c0 3.314-2.686 6-6 6v4c5.523 0 10-4.477 10-10h-4zM32 16c-3.314 0-6-2.686-6-6h-4c0 5.523 4.477 10 10 10v-4zM26 10c0-3.314 2.686-6 6-6v-4c-5.523 0-10 4.477-10 10h4zM32 4c3.314 0 6 2.686 6 6h4c0-5.523-4.477-10-10-10v4z"></path>
    <path fill="#4caf50" style="fill: var(--color4, #4caf50)" d="M40 10c0 4.418-3.582 8-8 8s-8-3.582-8-8c0-4.418 3.582-8 8-8s8 3.582 8 8z"></path>
    <path d="M18 44c0 2.209-1.791 4-4 4v4c4.418 0 8-3.582 8-8h-4zM14 48c-2.209 0-4-1.791-4-4h-4c0 4.418 3.582 8 8 8v-4zM10 44c0-2.209 1.791-4 4-4v-4c-4.418 0-8 3.582-8 8h4zM14 40c2.209 0 4 1.791 4 4h4c0-4.418-3.582-8-8-8v4z"></path>
    <path fill="#009688" style="fill: var(--color2, #009688)" d="M20 44c0 3.314-2.686 6-6 6s-6-2.686-6-6c0-3.314 2.686-6 6-6s6 2.686 6 6z"></path>
    <path d="M16 16c0 1.105-0.895 2-2 2v4c3.314 0 6-2.686 6-6h-4zM14 18c-1.105 0-2-0.895-2-2h-4c0 3.314 2.686 6 6 6v-4zM12 16c0-1.105 0.895-2 2-2v-4c-3.314 0-6 2.686-6 6h4zM14 14c1.105 0 2 0.895 2 2h4c0-3.314-2.686-6-6-6v4z"></path>
    <path fill="#9c27b0" style="fill: var(--color3, #9c27b0)" d="M18 16c0 2.209-1.791 4-4 4s-4-1.791-4-4c0-2.209 1.791-4 4-4s4 1.791 4 4z"></path>
</symbol>
<symbol id="icon-magnifying-glass" viewBox="0 0 64 64">
    <title>magnifying-glass</title>
    <path d="M62.577 55.616l-13.192-13.192c3.179-4.589 4.77-9.706 4.77-15.346 0-3.667-0.712-7.173-2.136-10.519s-3.346-6.231-5.769-8.654-5.307-4.346-8.653-5.769c-3.347-1.423-6.853-2.135-10.52-2.135s-7.173 0.712-10.519 2.135c-3.347 1.423-6.231 3.346-8.654 5.769s-4.346 5.308-5.769 8.654c-1.423 3.346-2.135 6.853-2.135 10.519s0.712 7.172 2.135 10.519c1.423 3.346 3.346 6.23 5.769 8.653s5.308 4.346 8.654 5.77c3.346 1.423 6.853 2.134 10.519 2.134 5.642 0 10.757-1.591 15.347-4.77l13.192 13.154c0.923 0.974 2.075 1.462 3.461 1.462 1.333 0 2.488-0.487 3.461-1.462s1.461-2.128 1.461-3.461c0-1.358-0.474-2.513-1.423-3.461zM39.25 39.25c-3.372 3.372-7.429 5.058-12.173 5.058s-8.801-1.687-12.173-5.058c-3.372-3.372-5.058-7.429-5.058-12.173s1.686-8.801 5.058-12.173c3.371-3.372 7.429-5.058 12.173-5.058s8.801 1.687 12.173 5.058c3.372 3.371 5.058 7.429 5.058 12.173s-1.687 8.801-5.058 12.173z"></path>
</symbol>
<symbol id="icon-event" viewBox="0 0 24 24">
    <title>event</title>
    <path d="M17 12h-5v5h5v-5zM16 1v2H8V1H6v2H5c-1.11 0-1.99.9-1.99 2L3 19c0 1.1.89 2 2 2h14c1.1 0 2-.9 2-2V5c0-1.1-.9-2-2-2h-1V1h-2zm3 18H5V8h14v11z"/>
    <path d="M0 0h24v24H0z" fill="none"/>
</symbol>
<symbol id="icon-price-euro" viewBox="0 0 24 24">
    <title>price</title>
    <path d="M15 18.5c-2.51 0-4.68-1.42-5.76-3.5H15v-2H8.58c-.05-.33-.08-.66-.08-1s.03-.67.08-1H15V9H9.24C10.32 6.92 12.5 5.5 15 5.5c1.61 0 3.09.59 4.23 1.57L21 5.3C19.41 3.87 17.3 3 15 3c-3.92 0-7.24 2.51-8.48 6H3v2h3.06c-.04.33-.06.66-.06 1 0 .34.02.67.06 1H3v2h3.52c1.24 3.49 4.56 6 8.48 6 2.31 0 4.41-.87 6-2.3l-1.78-1.77c-1.13.98-2.6 1.57-4.22 1.57z"/>
</symbol>
<symbol id="icon-location" viewBox="0 0 24 24">
    <title>location</title>
    <path d="M12 2C8.13 2 5 5.13 5 9c0 5.25 7 13 7 13s7-7.75 7-13c0-3.87-3.13-7-7-7zm0 9.5c-1.38 0-2.5-1.12-2.5-2.5s1.12-2.5 2.5-2.5 2.5 1.12 2.5 2.5-1.12 2.5-2.5 2.5z"/>
    <path d="M0 0h24v24H0z" fill="none"/>
</symbol>
<symbol id="icon-social-twitter" viewBox="0 0 48 48">
    <!-- From https://icomoon.io/ -->
    <title>twitter</title>
    <path d="M48 10.613c-1.763 0.787-3.666 1.313-5.653 1.547 2.034-1.219 3.591-3.15 4.331-5.447-1.903 1.125-4.012 1.95-6.253 2.391-1.8-1.912-4.359-3.103-7.191-3.103-5.438 0-9.844 4.406-9.844 9.844 0 0.769 0.084 1.519 0.253 2.241-8.184-0.413-15.441-4.331-20.297-10.294-0.844 1.453-1.331 3.15-1.331 4.95 0 3.413 1.734 6.431 4.378 8.194-1.613-0.047-3.131-0.497-4.463-1.228 0 0.038 0 0.084 0 0.122 0 4.772 3.394 8.756 7.903 9.656-0.825 0.225-1.697 0.347-2.597 0.347-0.637 0-1.247-0.066-1.856-0.178 1.256 3.909 4.894 6.759 9.197 6.844-3.375 2.644-7.612 4.219-12.234 4.219-0.797 0-1.575-0.047-2.353-0.141 4.369 2.803 9.544 4.425 15.103 4.425 18.113 0 28.022-15.009 28.022-28.022 0-0.431-0.009-0.853-0.028-1.275 1.922-1.378 3.591-3.113 4.912-5.091z"></path>
</symbol>
<symbol id="icon-social-facebook" viewBox="0 0 48 48">
    <!-- From https://icomoon.io/ -->
    <title>facebook</title>
    <path d="M28.5 9h7.5v-9h-7.5c-5.79 0-10.5 4.71-10.5 10.5v4.5h-6v9h6v24h9v-24h7.5l1.5-9h-9v-4.5c0-0.813 0.687-1.5 1.5-1.5z"></path>
</symbol>
<symbol id="icon-settings" viewBox="0 0 24 24">
    <!-- From https://material.io/icons/#ic_settings -->
    <title>settings</title>
    <path d="M0 0h24v24H0z" fill="none"/>
    <path d="M19.43 12.98c.04-.32.07-.64.07-.98s-.03-.66-.07-.98l2.11-1.65c.19-.15.24-.42.12-.64l-2-3.46c-.12-.22-.39-.3-.61-.22l-2.49 1c-.52-.4-1.08-.73-1.69-.98l-.38-2.65C14.46 2.18 14.25 2 14 2h-4c-.25 0-.46.18-.49.42l-.38 2.65c-.61.25-1.17.59-1.69.98l-2.49-1c-.23-.09-.49 0-.61.22l-2 3.46c-.13.22-.07.49.12.64l2.11 1.65c-.04.32-.07.65-.07.98s.03.66.07.98l-2.11 1.65c-.19.15-.24.42-.12.64l2 3.46c.12.22.39.3.61.22l2.49-1c.52.4 1.08.73 1.69.98l.38 2.65c.03.24.24.42.49.42h4c.25 0 .46-.18.49-.42l.38-2.65c.61-.25 1.17-.59 1.69-.98l2.49 1c.23.09.49 0 .61-.22l2-3.46c.12-.22.07-.49-.12-.64l-2.11-1.65zM12 15.5c-1.93 0-3.5-1.57-3.5-3.5s1.57-3.5 3.5-3.5 3.5 1.57 3.5 3.5-1.57 3.5-3.5 3.5z"/>
</symbol>
<symbol id="icon-link" viewBox="0 0 24 24">
    <!-- From https://material.io/icons/#ic_link -->
    <title>link</title>
    <path d="M0 0h24v24H0z" fill="none"/>
    <path d="M3.9 12c0-1.71 1.39-3.1 3.1-3.1h4V7H7c-2.76 0-5 2.24-5 5s2.24 5 5 5h4v-1.9H7c-1.71 0-3.1-1.39-3.1-3.1zM8 13h8v-2H8v2zm9-6h-4v1.9h4c1.71 0 3.1 1.39 3.1 3.1s-1.39 3.1-3.1 3.1h-4V17h4c2.76 0 5-2.24 5-5s-2.24-5-5-5z"/>
</symbol>
<!-- Categories -->
<symbol id="tag-hiking" viewBox="0 0 126 126">
    <circle cx="63.2" cy="62.8" r="60.8"/>
    <path d="M79.6 49.17h3.7c2.4 0 4.4-2 4.4-4.4s-2-4.4-4.4-4.4h-5.1c-2.4 0-4.4 2-4.4 4.4M104.5 98.77l-82.1-9.5"/>
    <path d="M86.3 96.57L78 76.47c-.9-2.3-1.4-4.7-1.4-7.1v-19.5c0-4-3.3-7.3-7.3-7.3H66c-1.9 0-3.8.5-5.4 1.6l-9.2 5.8H43c-2.4 0-4.4 2-4.4 4.4v-1.5c0 2.4 2.4 4 4.8 4h9.2l7.3-4M76.6 94.67l-9-23.2"/>
    <path d="M67.6 71.57l-5.9 5.9a7.38 7.38 0 0 0-2 6.5l1.7 9.5M59.8 51.77v12.7c0 1.1-.4 2.2-1.2 3l-5.8 6.3a7.46 7.46 0 0 0-1.8 6.7l2.9 12.3M41.5 57.27v33.7M41.5 45.47v3.7M77.1 73.37h6.2c2.4 0 4.4-2 4.4-4.4v-14.2c0-1.1-.3-2.1-.9-3l-2.1-3.3M68.3 25.47c-3.7 0-6.8 3.1-6.8 6.8s3.1 6.8 6.8 6.8 6.8-3.1 6.8-6.8-3.1-6.8-6.8-6.8z"/>
</symbol>
<symbol id="tag-nature" viewBox="0 0 126 126">
    <circle cx="62.8" cy="63.8" r="60.8"/>
    <circle cx="62.9" cy="52.2" r="30.6"/>
    <path d="M62.9 39.7V106M50.9 106h23.3M74.2 51.4L62.9 62.7M50.9 44.7l12 12.4"/>
</symbol>
<symbol id="tag-food" viewBox="0 0 126 126">
	<circle stroke="currentColor" cx="63" cy="63" r="60.8"/>
	<g>
		<path stroke="currentColor" d="M64.2,36.1c-6.5,0-11.7,6.3-11.7,14
			c0,6.9,4.2,12.7,9.7,13.9v27.8h4.1V64c5.5-1.2,9.7-6.9,9.7-13.9C75.9,42.4,70.6,36.1,64.2,36.1z"/>
		<path stroke="currentColor" d="M27.2,35.5v13.9c0,6.3,3.7,11.6,8.7,12.8v29.7H40
			V62.2c4.9-1.2,8.7-6.5,8.7-12.8V35.5"/>
		<path stroke="currentColor" d="M35.8,57.7"/>
		<path stroke="currentColor" d="M37.9,57.7V35.5"/>
		<path stroke="currentColor" d="M91.3,35.5L91.3,35.5h-0.1c-6,0-8.4,7-10.1,17.6
			c-1,6.1,0.8,12.2,4.5,15.7c1.2,1.1,2.6,1.8,4,2.2v20.9h4.1V35.5H91.3z"/>
	</g>
</symbol>
<symbol id="tag-party" viewBox="0 0 126 126">
	<circle cx="63" cy="63" r="60.8"/>
    <circle cx="64.1" cy="72.5" r="32.8"/>
    <ellipse cx="64.7" cy="72.4" rx="15.9" ry="32.7"/>
    <line x1="34.6" y1="58.1" x2="93.5" y2="57.9"/>
    <line x1="30.4" y1="73.4" x2="97.7" y2="73.4"/>
    <line x1="35.7" y1="88.6" x2="91.6" y2="88.6"/>
    <line x1="64.1" y1="17" x2="64.1" y2="105.3"/>
    <line x1="46" y1="38.1" x2="46" y2="25.7"/>
    <line x1="35.7" y1="43.4" x2="27" y2="34.8"/>
    <line x1="31.3" y1="53.8" x2="20.2" y2="53.8"/>
</symbol>
<symbol id="tag-sport" viewBox="0 0 126 126">
	<circle cx="63" cy="63" r="60.8"/>
    <path d="M95.1,33.5c-4.3-4.3-10.3-6.5-16.6-6C72.1,28,65.9,31,60.8,36.1c-9,9-9.8,17.7-10.5,25.4
        c-0.6,6.4-1.1,11.9-5.9,16.7L36.6,86c-0.4,0-0.8,0.2-1,0.5l-3.4,3.4c-0.3,0.3-0.5,0.7-0.5,1.2c0,0.4,0.2,0.8,0.5,1.1l3.9,3.9
        c0.3,0.3,0.7,0.5,1.1,0.5s0.8-0.2,1.2-0.5l3.4-3.4c0.3-0.3,0.5-0.6,0.5-1l7.8-7.8c4.9-4.9,10.4-5.3,16.7-5.7
        c7.7-0.5,16.4-1.1,25.7-10.4c5.1-5.1,8.1-11.2,8.6-17.7C101.6,43.7,99.5,37.8,95.1,33.5z"/>
    <path d="M78.4,32.7c-5.2,0.4-10.1,2.8-14.3,7c-4.4,4.4-7,9.6-7.3,14.6c-0.3,4.9,1.4,9.5,4.8,12.9
        c3.1,3.1,7.3,4.8,11.7,4.8c0.4,0,0.8,0,1.2,0c5-0.3,10.2-2.9,14.6-7.3c4.2-4.2,6.6-9.1,7-14.3c0.4-5-1.3-9.6-4.7-13
        C88.1,34,83.4,32.4,78.4,32.7z"/>
    <path d="M37.9,58.8c4.4,0,8-3.6,8-8s-3.6-8-8-8s-8,3.6-8,8C29.9,55.2,33.5,58.8,37.9,58.8z"/>
</symbol>

<symbol id="tag-mindfulness" viewBox="0 0 126 126">
	<circle cx="63" cy="63" r="60.8"/>
    <path d="M62.5,47.4c-4.7,0-8.5-3.8-8.5-8.5s3.8-8.5,8.5-8.5s8.5,3.8,8.5,8.5S67.2,47.4,62.5,47.4z"/>
    <path d="M66.2,94.3c-3-5.5-12.2-12.5-16.4-15.2 M72.4,95.6h19.8c5.5,0,9.9-4.4,9.9-9.9c0-4-2.3-7.4-5.7-8.9
        c0.8-0.6,1.4-1.4,1.4-2.4c0-1.6-1.3-2.8-2.8-2.8c-10.8,0-19.8-9.8-19.8-21.3h-0.3h-1.1h-4.3h-0.3H55.5h-0.1h-4.3h-1.2h-0.1
        c0,11.5-9.1,21.3-19.8,21.3c-1.6,0-2.8,1.3-2.8,2.8c0,1,0.6,2,1.4,2.4c-3.3,1.6-5.7,5-5.7,8.9c0,5.5,4.4,9.9,9.9,9.9h19.8
            M74.5,79.2c-1.4,1-8.2,4.5-9.6,5.8 M37.3,75.9c5-1.7,9.6-5,12.5-9.2v12.5C45.5,77,40.5,76.2,37.3,75.9z M75.3,66.7
        c2.8,4.3,7.4,7.5,12.2,9.2c-3.3,0.3-7.9,1-12.2,3V66.7z"/>
    <line x1="62.1" y1="26.2" x2="62.1" y2="19.1"/>
    <line x1="52.7" y1="29.4" x2="47.7" y2="24.4"/>
    <line x1="42.7" y1="36.1" x2="49.8" y2="36.1"/>
    <line x1="70" y1="28.4" x2="75" y2="23.4"/>
    <line x1="75.3" y1="36.1" x2="82.3" y2="36.1"/>
</symbol>
<symbol id="tag-drinks" viewBox="0 0 126 126">
	<circle cx="63" cy="63" r="60.8"/>
    <line x1="56.3" y1="106.6" x2="56.3" y2="78.2"/>
    <path d="M45.1,106.6h22.5 M56.3,78.2l16.3-23.6c8.1,4.3,18.1,1.3,22.4-6.8s1.3-18.1-6.8-22.4c-2.3-1.3-4.9-1.9-7.6-2
        c-8.4,0-15.5,6.3-16.5,14.6H32c-1,0-1.8,0.9-1.8,1.9c0,0.3,0.1,0.7,0.3,1L56.3,78.2 M76.3,49.3h-40 M72.6,54.6l9.6-13.7
        c0.6-0.9,0.3-2-0.5-2.6c-0.3-0.2-0.6-0.3-1-0.3H64.2"/>
</symbol>
<symbol id="tag-binoculars" viewBox="0 0 126 126">
	<circle cx="63" cy="63" r="60.8"/>
    <path d="M68.6,63.4l-0.9,14c-0.3,1.5-0.3,3.1-0.2,4.6v0.2c0,0.1,0,0.3,0,0.4c1,9.4,8.9,16.5,18.3,16.5h1.9
        c10.2-1,17.6-10.1,16.5-20.3v-0.1c-0.1-0.7-0.2-1.4-0.3-2.1v-0.5l-0.5-1.5L92.2,37c-0.7-6.2-6.2-10.6-12.4-9.9s-10.6,6.2-9.9,12.4
        l0,0l-0.5,10 M58,77.3l-0.7-13.9 M56.4,47.6l-0.5-8.1c0.7-6.2-3.7-11.7-9.9-12.4S34.3,30.8,33.6,37l0,0L22.5,74.6L22.1,76
            M51.4,94.6c-7.8,6.2-19.2,5-25.5-2.8c-2.9-3.6-4.3-8.3-3.9-12.9c0.1-0.8,0.2-1.6,0.4-2.4l0.5-1.9c2.5-7.2,9.4-12,17-12h1.9
        c7.9,0.8,14.3,6.6,15.9,14.4l0.2,5c0,0.1,0,0.2,0,0.5C57.4,87.2,55,91.5,51.4,94.6z M57.3,63.4l-0.9-15.8h13.1l-0.9,15.8H57.3z
            M87.7,98.9c-10.1,1-19.1-6.4-20.2-16.5c0-0.1,0-0.3,0-0.5l0.3-5.1C69.4,68.9,76,63,84,62.1h1.9c7.8,0,14.8,5,17.4,12.4l0.5,1.7
        c2.4,9.9-3.6,19.8-13.4,22.3C89.4,98.7,88.6,98.9,87.7,98.9z"/>
</symbol>
<symbol id="tag-animals" viewBox="0 0 126 126">
	<circle cx="63" cy="63" r="60.8"/>
    <path d="M33.8,68.3c2.7-0.4,4.6-1.4,5.8-3.1c1.9-2.8,1.1-6.8,0-11c-2.1-8-7.1-12.4-12.5-11c-2.8,0.7-4.7,3-5.3,6.5
        c-0.6,3.3,0.1,7.1,0.8,9.7c1.6,6.2,4.6,9.2,9.3,9.2C32.5,68.5,33.1,68.4,33.8,68.3z"/>
    <path d="M49.8,54.7c1.1,0,2.5-0.4,3.9-1.6c4.6-3.8,6.3-8.6,5.1-14.5c-0.7-3.4-2-6.3-3.8-8.3c-2.1-2.3-4.8-3.3-7.5-2.7
        c-5.4,1.1-8.4,7.7-6.9,15C41.5,47.2,44,53,48,54.4C48.5,54.6,49.2,54.7,49.8,54.7z"/>
    <path d="M31.1,87.7c0,5,3.4,10.8,13,10.8c4.2,0,6.9-0.3,9.2-0.6c1.8-0.2,3.3-0.4,5.2-0.4s4.3,0.2,7,0.4
        c3.4,0.3,7.3,0.5,11.5,0.5c7.3,0,11-3.6,11-10.8c0-5.4-3-12.2-9.6-14.6c-2.5-0.9-2.9-2.4-3.4-4.8c-0.4-1.9-0.9-4.3-2.8-6.3
        c-4-4.3-10.7-3.7-11.8-3.5c-1,0-6.6,0.4-10.4,4.5c-1.2,1.3-2.2,2.6-3.1,3.9c-1.9,2.6-3.5,4.9-7.2,6.2
        C31.1,76.7,31.1,82.8,31.1,87.7z"/>
    <path d="M100.4,49.3c-2.2-1.8-5.2-2.3-8.5-1.4c-3,0.8-5.9,2.8-8.2,5.6c-3.6,4.3-5.4,10.6,0.1,15.2
        c1.5,1.3,3.5,1.9,5.7,1.9c4.1,0,8.8-2.2,12-6c2.3-2.8,3.3-5.7,2.9-8.5C104.1,53.4,102.7,51.1,100.4,49.3z"/>
    <path d="M76,27.6c-5.4-0.7-10.4,4.4-11.3,11.6c-0.9,6.8,1,9.8,4.9,12.8c1.2,0.9,2.5,1.4,3.9,1.4
        c0.9,0,1.8-0.2,2.7-0.5c3.8-1.5,7.1-6.3,7.8-11C84.8,34.5,81.4,28.3,76,27.6z"/>
</symbol>
<symbol id="tag-ecological" viewBox="0 0 126 126">
    <circle class="st0" cx="63" cy="63" r="60.8"/>
    <path class="st0" d="M52.1,24.4c-17.3,4.7-29.3,20.4-29.3,38.4c0,18.4,12.5,34.3,30.4,38.7c0.1,0,0.2,0,0.2,0"/>
    <path class="st0" d="M51.5,24.5c-17,4.9-28.7,20.4-28.7,38.3c0,18.4,12.5,34.3,30.4,38.7c0.1,0,0.2,0,0.2,0"/>
    <path class="st0" d="M47.6,23.3c0,0.1,0,0.3,0.2,0.3l3.7,1l-2.4,2.9c-0.1,0.1-0.1,0.3,0,0.4s0.3,0.1,0.4,0l2.7-3.2
        c0.1-0.1,0.1-0.2,0-0.2c0-0.1-0.1-0.1-0.2-0.2l-4.1-1.1h-0.1C47.6,23.2,47.6,23.2,47.6,23.3z"/>
    <path class="st0" d="M72.5,101.6c0.1,0,0.2,0,0.2,0C90.6,97.2,103,81.3,103,62.9c0-18-12-33.7-29.3-38.4"/>
    <path class="st0" d="M73.1,101.4c17.7-4.5,30-20.3,30-38.6c0-18-12-33.7-29.3-38.4"/>
    <path class="st0" d="M77,103c0-0.1,0-0.3-0.2-0.3l-3.6-1.3l2.7-2.7c0.1-0.1,0.1-0.3,0-0.4s-0.3-0.1-0.4,0l-3,3
        c-0.1,0.1-0.1,0.1-0.1,0.2s0.1,0.2,0.2,0.2l4,1.4h0.1C76.9,103.2,77,103.1,77,103z"/>
    <path class="st0" d="M72,86.4c5-1.5,9-4.8,11.2-9.1c6.2-12.2-0.4-36.6-0.7-37.7l0,0c0-0.1-0.1-0.2-0.1-0.3v-0.1
        c-0.1-0.1-0.2-0.2-0.3-0.3l0,0l0,0H82c-0.1,0-0.2-0.1-0.3-0.1h-0.1c-0.1,0-0.2,0-0.3,0l0,0C80.3,39.2,56.1,49.1,50,61
        c-4.9-2.1-9.5-3.1-9.9-3.2l0,0c-0.1,0-0.2,0-0.3,0h-0.1c-0.1,0-0.3,0.1-0.4,0.2l0,0l0,0l0,0c-0.1,0.1-0.2,0.2-0.2,0.3v0.1
        c0,0.1-0.1,0.2-0.1,0.3l0,0c-0.1,0.7-1.8,16.4,3,23.3c1.8,2.6,4.5,4.3,7.6,4.8c0.7,0.1,1.3,0.2,2,0.2c2.1,0,4.2-0.6,6.1-1.7l0,0
        c2.6,1.3,5.5,2,8.5,2C68,87.3,70,87,72,86.4z M63.8,74.4l18.6-35.2 M57.5,85.3c-1.8,0.9,4.6-3,5.9-6.8c1.7-5.3-1.8-9.1-2.4-9.9
        c-2-2.8-7.4-5.8-11-7.5 M39.1,58.1l18.8,25.7"/>
</symbol>
<symbol id="tag-cinema" viewBox="0 0 126 126">
	<circle class="st0" cx="63" cy="63" r="60.8"/>
	<path class="st0" d="M94.4,92.4H62.1c-17.5,0-31.7-14.2-31.7-31.7S44.6,29,62.1,29s31.7,14.2,31.7,31.7c0,8.8-3.5,17-10,23"/>
	<path class="st0" d="M52.6,60.7c0,3.6-2.9,6.5-6.5,6.5s-6.5-2.9-6.5-6.5s2.9-6.5,6.5-6.5C49.7,54.2,52.6,57.1,52.6,60.7z"/>
	<path class="st0" d="M71.6,60.7c0-3.6,2.9-6.5,6.5-6.5s6.5,2.9,6.5,6.5c0,3.6-2.9,6.5-6.5,6.5S71.6,64.3,71.6,60.7z"/>
	<path class="st0" d="M62.1,70.2c3.6,0,6.5,2.9,6.5,6.5s-2.9,6.5-6.5,6.5s-6.5-2.9-6.5-6.5S58.5,70.2,62.1,70.2z"/>
	<path class="st0" d="M62.1,38.2c3.6,0,6.5,2.9,6.5,6.5s-2.9,6.5-6.5,6.5s-6.5-2.9-6.5-6.5S58.5,38.2,62.1,38.2z"/>
</symbol>
<symbol id="tag-hippie" viewBox="0 0 126 126">
	<circle cx="63" cy="63" r="60.8"/>
	<path d="M63,22.4c-22.4,0-40.6,18.2-40.6,40.6c0,22.4,18.2,40.6,40.6,40.6s40.6-18.2,40.6-40.6
		C103.7,40.6,85.5,22.4,63,22.4z M59.3,96.4c-6.2-0.7-12.7-3.3-17.6-7.3l17.6-17.6V96.4z M66.8,71.5l17.6,17.6
		c-4.9,4-11.3,6.6-17.6,7.3V71.5z M29.4,63c0-17.3,13.7-31.6,29.9-33.4v31.9L36.8,84.1C32.1,78.3,29.4,71,29.4,63z M89.3,84.1
		L66.9,61.5V29.6c16.2,1.8,30,16.1,30,33.4C96.8,71,93.9,78.3,89.3,84.1z"/>
</symbol>
<symbol id="tag-beach" viewBox="0 0 126 126">
	<circle cx="63" cy="63" r="60.8"/>
    <path d="M32.1,98.2l8.9-6.5h24l8.9,6.5 M64.4,91.7h11.5c1.7,0,3.4-0.7,4.6-1.9l22.6-22.4c2.6-2.6,2.6-6.7,0.1-9.3
        c-2.6-2.6-6.7-2.6-9.3-0.1L73.2,78.5H30.3c-3.6,0-6.6,3-6.6,6.6s3,6.6,6.6,6.6H41"/>
    <path d="M72.4,40.1c0-5-4-9-9-9s-9,4-9,9s4,9,9,9S72.4,45.1,72.4,40.1z"/>
    <path d="M63.4,63.1v-6"/>
    <path d="M63.4,17.2v6"/>
    <path d="M64.4,17.2"/>
    <path d="M64.4,23.2"/>
    <path d="M40.5,41.1h6"/>
    <path d="M86.3,40.1h-6"/>
    <path d="M86.3,41.1"/>
    <path d="M80.3,41.1"/>
    <path d="M47.9,57l4.2-4.2"/>
    <path d="M78.9,23.3l-4.2,4.2"/>
    <path d="M50.7,28.9"/>
    <path d="M46.5,24.7"/>
    <path d="M52.1,27.5l-4.2-4.2"/>
    <path d="M80.3,55.6l-4.2-4.2"/>
</symbol>
<symbol id="tag-sailing" viewBox="0 0 126 126">
	<circle cx="63" cy="63" r="60.8"/>
	<path d="M71.6,73.9V16.4c0-0.5-0.4-1.1-1-1.4c-0.5-0.1-1.2,0-1.5,0.5L31.8,66.2c-0.3,0.4-0.4,1-0.1,1.4
		c0.3,0.5,0.8,0.8,1.2,0.8h38.6 M101.2,77.3c-0.3-0.4-0.7-0.7-1.1-0.7H24.7c-0.8,0-1.4,0.5-1.4,1.4v8.2c0,6,4.8,10.8,10.8,10.8h37.8
		c12.5,0,24-7.3,29.3-18.5C101.5,78.3,101.5,77.7,101.2,77.3z"/>
</symbol>
<symbol id="tag-kayaking" viewBox="0 0 126 126">
	<circle cx="63" cy="63" r="60.8"/>
	<g transform="translate(0,-952.36218)">
		<path d="M104.3,984c0,0.5-0.2,1-0.6,1.4l-7.9,8c-0.4,0.4-1,0.6-1.6,0.6l-4.7-0.4l-7.1,7.1c6.6,2.8,13.3,7.2,20,13.1
			c1.2,1.1,1.2,2.3-0.1,3.4c-13.1,11.5-26,17.2-38.7,17c-4.3,0-8.5-0.7-12.7-2.1l-8,8c0.1,1.6,0.2,3.3,0.4,4.9c0,0.5-0.2,1-0.6,1.4
			l-7.9,7.9c-0.7,0.7-2,0.7-2.8,0l-6-6c-0.7-0.7-0.7-2.1,0-2.8l7.9-7.9c0.4-0.4,1-0.6,1.6-0.6l4.7,0.4l6.7-6.8
			c-6.7-2.9-13.3-7.4-19.6-13.4c-1.2-1.2-1.2-2.2-0.1-3.4c11.6-11,23.7-17,36.4-17.1c4.9-0.1,9.8,0.8,14.7,2.4l8.3-8.4l-0.4-4.7
			c0-0.6,0.2-1.1,0.6-1.5l7.9-7.9c0.7-0.7,2.1-0.7,2.8,0l6,6C104.1,983,104.3,983.5,104.3,984L104.3,984z M74.8,1008.4
			c1.2,0.3,2.3,0.5,3.3,0.9c1.7,0.6,3.2,1.3,4.4,2.2c1.2,0.9,2.1,2.3,2.1,3.9s-1,2.9-2.1,3.9c-1.2,0.9-2.6,1.7-4.4,2.3
			c-3.5,1.2-8.1,1.8-13.1,1.8c-1.7,0-3.4-0.1-5-0.2 M47.1,1030.5l8.1-8.1c-1.2-0.3-2.4-0.5-3.4-0.9c-1.7-0.6-3.2-1.3-4.4-2.3
			c-1.2-0.9-2.1-2.3-2.1-3.9s1-2.9,2.1-3.9c1.2-0.9,2.6-1.6,4.4-2.2c3.5-1.2,8.1-1.9,13.2-1.9c1.7,0,3.4,0.1,5,0.2l8.6-8.6"/>
	</g>
</symbol>
<symbol id="tag-biking" viewBox="0 0 126 126">
	<circle cx="63" cy="63" r="60.8"/>
	<g>
		<circle cx="36.1" cy="68.3" r="16.2"/>
		<circle cx="91.2" cy="65.5" r="18.8"/>
		<line x1="36.1" y1="68.3" x2="53" y2="38.7"/>
		<line x1="91.2" y1="65.5" x2="76.8" y2="31.2"/>
		<line x1="43.3" y1="39" x2="60.5" y2="39"/>
		<line x1="49.1" y1="44.9" x2="82.6" y2="44.9"/>
		<line x1="76" y1="31.4" x2="87.3" y2="31.4"/>
	</g>
</symbol>
<symbol id="tag-games" viewBox="0 0 126 126">
	<circle cx="63" cy="63" r="60.8"/>
	<path d="M88.1,29.5c-1.1,0-2.3,0.2-3.3,0.7l-18.2,7.5c-4.4,1.8-6.5,6.9-4.6,11.2l7.5,18.2c1.8,4.4,6.9,6.5,11.2,4.7
		l18.2-7.5c4.4-1.8,6.5-6.9,4.6-11.2L96,34.9C94.7,31.5,91.5,29.5,88.1,29.5z M86.2,39.8c-1.4,0-2.6,1.2-2.6,2.6
		c0,1.4,1.2,2.6,2.6,2.6s2.6-1.2,2.6-2.6C88.8,40.9,87.6,39.8,86.2,39.8z M74.2,44.9c-1.4,0-2.6,1.2-2.6,2.6s1.2,2.6,2.6,2.6l0,0
		c1.4,0,2.6-1.2,2.6-2.6l0,0C76.7,46.1,75.6,44.9,74.2,44.9z M91.3,51.8c-1.4,0-2.6,1.2-2.6,2.6c0,1.4,1.2,2.6,2.6,2.6
		c1.4,0,2.6-1.2,2.6-2.6C93.9,53,92.8,51.8,91.3,51.8z M37.8,55.3c-3.3,0-6.5,2-7.9,5.3l-7.5,18.2c-1.8,4.4,0.3,9.4,4.6,11.2
		l18.2,7.5c4.4,1.8,9.4-0.3,11.2-4.7l7.5-18.2c1.8-4.4-0.3-9.4-4.6-11.2l-18.2-7.5C40.1,55.5,39,55.2,37.8,55.3z M79.3,57
		c-1.4,0-2.6,1.2-2.6,2.6c0,1.4,1.2,2.6,2.6,2.6c1.4,0,2.6-1.2,2.6-2.6C81.9,58.1,80.7,57,79.3,57z M40.2,63.6
		c-1.4,0-2.6,1.2-2.6,2.6c0,1.4,1.2,2.6,2.6,2.6c1.4,0,2.6-1.2,2.6-2.6C42.8,64.7,41.6,63.6,40.2,63.6z M52.9,68.8
		c-1.4,0-2.6,1.2-2.6,2.6c0,1.4,1.2,2.6,2.6,2.6l0,0c1.4,0,2.6-1.2,2.6-2.6l0,0C55.5,70,54.3,68.8,52.9,68.8z M36.9,71.5
		c-1.4,0-2.6,1.2-2.6,2.6c0,1.4,1.2,2.6,2.6,2.6c1.4,0,2.6-1.2,2.6-2.6l0,0C39.5,72.7,38.3,71.5,36.9,71.5L36.9,71.5z M49.6,76.8
		c-1.4,0-2.6,1.2-2.6,2.6l0,0c0,1.4,1.2,2.6,2.6,2.6l0,0c1.4,0,2.6-1.2,2.6-2.6C52.2,77.9,51,76.8,49.6,76.8z M33.6,79.4
		c-1.4,0-2.6,1.2-2.6,2.6s1.2,2.6,2.6,2.6c1.4,0,2.6-1.2,2.6-2.6S35,79.4,33.6,79.4z M46.3,84.7c-1.4,0-2.6,1.2-2.6,2.6
		s1.2,2.6,2.6,2.6c1.4,0,2.6-1.2,2.6-2.6C48.9,85.9,47.7,84.7,46.3,84.7z"/>
</symbol>
<symbol id="tag-painting" viewBox="0 0 126 126">
    <circle class="st0" cx="63" cy="63" r="60.8"/>
    <path class="st0" d="M66,110.8L66,110.8c-18.4,0-35.6-12.9-43.6-32.9c-7.9-19.5-1.1-35.4,2.2-41.3c4.3-7.7,10.2-13.1,15.6-14
        c1.8-0.3,3.5-0.5,5-0.5c8.8,0,13.7,5.4,15.4,17.1c1.9,12.6,7.6,16.6,17.6,19.7c1.2,0.4,2.4,0.5,3.7,0.5c2.1,0,4.2-0.5,6.3-0.9
        c2-0.4,3.8-0.9,5.6-0.9c3.7,0,6.5,1.8,8.7,5.7c2.6,4.4,3,10.6,1.1,17.2c-2.9,10.7-10.8,20.5-21,26.1C77.7,109.4,72,110.8,66,110.8z"
        />
    <path class="st0" d="M47.5,50.2c-3.5,0-7.2-3.1-9.2-7.8c-1.2-2.7-1.6-5.5-1.3-8c0.4-2.6,1.7-4.5,3.6-5.4c0.7-0.3,1.4-0.4,2.1-0.4
        c3.5,0,7.2,3.1,9.2,7.8c2.5,5.8,1.5,11.7-2.3,13.3C48.9,50,48.2,50.2,47.5,50.2z"/>
    <path class="st0" d="M31.4,64.2c-3.7,0-6.8-3-6.8-6.8c0-3.7,3-6.8,6.8-6.8c3.7,0,6.8,3,6.8,6.8S35.2,64.2,31.4,64.2z"/>
    <path class="st0" d="M39.3,86.4c-3.7,0-6.8-3-6.8-6.8c0-3.7,3-6.8,6.8-6.8c3.7,0,6.8,3,6.8,6.8S43,86.4,39.3,86.4z"/>
    <path class="st0" d="M56,101.4c-3.7,0-6.8-3-6.8-6.8c0-3.7,3-6.8,6.8-6.8s6.8,3,6.8,6.8S59.7,101.4,56,101.4z"/>
    <path class="st0" d="M78.9,100.1c-3.7,0-6.8-3-6.8-6.8c0-3.7,3-6.8,6.8-6.8c3.7,0,6.8,3,6.8,6.8S82.7,100.1,78.9,100.1z"/>
    <path class="st0" d="M90.4,80.7c-3.7,0-6.8-3-6.8-6.8c0-3.7,3-6.8,6.8-6.8c3.7,0,6.8,3,6.8,6.8C97.2,77.6,94.2,80.7,90.4,80.7z"/>
</symbol>
</defs>
</svg>
