<?xml version="1.0" encoding="utf-8"?>
<!-- Generator: Adobe Illustrator 22.0.1, SVG Export Plug-In . SVG Version: 6.00 Build 0)  -->
<svg version="1.1" id="Layer_1" xmlns="http://www.w3.org/2000/svg" xmlns:xlink="http://www.w3.org/1999/xlink" x="0px" y="0px"
	 viewBox="0 0 126 126" style="enable-background:new 0 0 126 126;" xml:space="preserve">
<style type="text/css">
	.st0{fill:none;stroke:#000000;stroke-width:2;stroke-miterlimit:10;}
</style>
<g id="Binoculars_5_">
	<circle class="st0" cx="63" cy="63" r="60.8"/>
	<g>
		<path class="st0" d="M68.6,63.4l-0.9,14c-0.3,1.5-0.3,3.1-0.2,4.6v0.2c0,0.1,0,0.3,0,0.4c1,9.4,8.9,16.5,18.3,16.5h1.9
			c10.2-1,17.6-10.1,16.5-20.3v-0.1c-0.1-0.7-0.2-1.4-0.3-2.1v-0.5l-0.5-1.5L92.2,37c-0.7-6.2-6.2-10.6-12.4-9.9s-10.6,6.2-9.9,12.4
			l0,0l-0.5,10 M58,77.3l-0.7-13.9 M56.4,47.6l-0.5-8.1c0.7-6.2-3.7-11.7-9.9-12.4S34.3,30.8,33.6,37l0,0L22.5,74.6L22.1,76
			 M51.4,94.6c-7.8,6.2-19.2,5-25.5-2.8c-2.9-3.6-4.3-8.3-3.9-12.9c0.1-0.8,0.2-1.6,0.4-2.4l0.5-1.9c2.5-7.2,9.4-12,17-12h1.9
			c7.9,0.8,14.3,6.6,15.9,14.4l0.2,5c0,0.1,0,0.2,0,0.5C57.4,87.2,55,91.5,51.4,94.6z M57.3,63.4l-0.9-15.8h13.1l-0.9,15.8H57.3z
			 M87.7,98.9c-10.1,1-19.1-6.4-20.2-16.5c0-0.1,0-0.3,0-0.5l0.3-5.1C69.4,68.9,76,63,84,62.1h1.9c7.8,0,14.8,5,17.4,12.4l0.5,1.7
			c2.4,9.9-3.6,19.8-13.4,22.3C89.4,98.7,88.6,98.9,87.7,98.9z"/>
	</g>
</g>
</svg>
