<?xml version="1.0" encoding="utf-8"?>
<!-- Generator: Adobe Illustrator 22.0.1, SVG Export Plug-In . SVG Version: 6.00 Build 0)  -->
<svg version="1.1" id="Layer_1" xmlns="http://www.w3.org/2000/svg" xmlns:xlink="http://www.w3.org/1999/xlink" x="0px" y="0px"
	 viewBox="0 0 126 126" style="enable-background:new 0 0 126 126;" xml:space="preserve">
<style type="text/css">
	.st0{fill:none;stroke:#000000;stroke-miterlimit:10;}
</style>
<g>
	<circle class="st0" cx="63" cy="63" r="60.8"/>
	<path class="st0" d="M94.4,92.4H62.1c-17.5,0-31.7-14.2-31.7-31.7S44.6,29,62.1,29s31.7,14.2,31.7,31.7c0,8.8-3.5,17-10,23"/>
	<path class="st0" d="M52.6,60.7c0,3.6-2.9,6.5-6.5,6.5s-6.5-2.9-6.5-6.5s2.9-6.5,6.5-6.5C49.7,54.2,52.6,57.1,52.6,60.7z"/>
	<path class="st0" d="M71.6,60.7c0-3.6,2.9-6.5,6.5-6.5s6.5,2.9,6.5,6.5c0,3.6-2.9,6.5-6.5,6.5S71.6,64.3,71.6,60.7z"/>
	<path class="st0" d="M62.1,70.2c3.6,0,6.5,2.9,6.5,6.5s-2.9,6.5-6.5,6.5s-6.5-2.9-6.5-6.5S58.5,70.2,62.1,70.2z"/>
	<path class="st0" d="M62.1,38.2c3.6,0,6.5,2.9,6.5,6.5s-2.9,6.5-6.5,6.5s-6.5-2.9-6.5-6.5S58.5,38.2,62.1,38.2z"/>
</g>
</svg>
