<?xml version="1.0" encoding="utf-8"?>
<!-- Generator: Adobe Illustrator 22.0.1, SVG Export Plug-In . SVG Version: 6.00 Build 0)  -->
<svg version="1.1" id="Layer_1" xmlns="http://www.w3.org/2000/svg" xmlns:xlink="http://www.w3.org/1999/xlink" x="0px" y="0px"
	 viewBox="0 0 126 126" style="enable-background:new 0 0 126 126;" xml:space="preserve">
<style type="text/css">
	.st0{fill:none;stroke:#000000;stroke-width:2;stroke-miterlimit:10;}
</style>
<circle class="st0" cx="63" cy="63" r="60.8"/>
<polyline class="st0" points="37.8,106 48.3,106 77.8,106 88.2,106 "/>
<path class="st0" d="M54.9,28.1c0-4.5,3.6-8.1,8.1-8.1s8.1,3.6,8.1,8.1c0,2.4-1.1,4.6-2.7,6.1h-0.2L68,34.5c-1.4,1.1-3.1,1.8-5,1.8
	s-3.6-0.7-5-1.8l-0.2-0.3h-0.2C56,32.7,54.9,30.6,54.9,28.1z"/>
<line class="st0" x1="49.4" y1="105.5" x2="38.7" y2="59.9"/>
<line class="st0" x1="87.3" y1="60" x2="76.8" y2="105.6"/>
<polygon class="st0" points="87.5,55.3 87.5,59.5 38.5,59.5 38.5,55.3 44.9,55.3 81.1,55.3 "/>
<path class="st0" d="M46.3,53.9v0.9V41.1c0-2.5,6.4-4.6,10.7-5.4l5.9,11.6l5.9-11.6c4.4,0.8,10.7,2.9,10.7,5.4v13.7"/>
<line class="st0" x1="77" y1="71.2" x2="71.2" y2="95.6"/>
<line class="st0" x1="50.4" y1="70.9" x2="56.2" y2="95.2"/>
<line class="st0" x1="63.7" y1="71" x2="63.7" y2="95.4"/>
</svg>
