<?xml version="1.0" encoding="utf-8"?>
<!-- Generator: Adobe Illustrator 22.0.1, SVG Export Plug-In . SVG Version: 6.00 Build 0)  -->
<svg version="1.1" id="Layer_1" xmlns="http://www.w3.org/2000/svg" xmlns:xlink="http://www.w3.org/1999/xlink" x="0px" y="0px"
	 viewBox="0 0 126 126" style="enable-background:new 0 0 126 126;" xml:space="preserve">
<style type="text/css">
	.st0{fill:none;stroke:#000000;stroke-width:2;stroke-miterlimit:10;}
</style>
<g id="Peace_5_">
	<circle class="st0" cx="63" cy="63" r="60.8"/>
	<path class="st0" d="M63,22.4c-22.4,0-40.6,18.2-40.6,40.6c0,22.4,18.2,40.6,40.6,40.6s40.6-18.2,40.6-40.6
		C103.7,40.6,85.5,22.4,63,22.4z M59.3,96.4c-6.2-0.7-12.7-3.3-17.6-7.3l17.6-17.6V96.4z M66.8,71.5l17.6,17.6
		c-4.9,4-11.3,6.6-17.6,7.3V71.5z M29.4,63c0-17.3,13.7-31.6,29.9-33.4v31.9L36.8,84.1C32.1,78.3,29.4,71,29.4,63z M89.3,84.1
		L66.9,61.5V29.6c16.2,1.8,30,16.1,30,33.4C96.8,71,93.9,78.3,89.3,84.1z"/>
</g>
</svg>
