<?xml version="1.0" encoding="utf-8"?>
<!-- Generator: Adobe Illustrator 22.0.1, SVG Export Plug-In . SVG Version: 6.00 Build 0)  -->
<svg version="1.1" id="Layer_1" xmlns="http://www.w3.org/2000/svg" xmlns:xlink="http://www.w3.org/1999/xlink" x="0px" y="0px"
	 viewBox="0 0 126 126" style="enable-background:new 0 0 126 126;" xml:space="preserve">
<style type="text/css">
	.st0{fill:none;stroke:#000000;stroke-width:2;stroke-miterlimit:10;}
</style>
<circle class="st0" cx="62.1" cy="63.3" r="60.8"/>
<polygon class="st0" points="62.1,78.7 68.1,88.4 56.2,88.5 56.1,88.4 "/>
<path class="st0" d="M62.1,16.5C45.5,16.5,32,30,32,46.6s13.5,30.1,30.1,30.1s30.1-13.5,30.1-30.1C92.2,29.9,78.7,16.5,62.1,16.5z"
	/>
<circle class="st0" cx="50.5" cy="34.8" r="4"/>
<path class="st0" d="M63.3,88.5c0,1.6-1.7,2.6-4.5,3.9c-2.7,1.3-5.8,2.8-5.8,5.9s3.1,4.6,5.8,5.9c2.8,1.3,4.5,2.3,4.5,3.9
	c0,1.6-1.6,2.5-4.2,3.7"/>
</svg>
