<?xml version="1.0" encoding="utf-8"?>
<!-- Generator: Adobe Illustrator 22.0.1, SVG Export Plug-In . SVG Version: 6.00 Build 0)  -->
<svg version="1.1" id="Layer_1" xmlns="http://www.w3.org/2000/svg" xmlns:xlink="http://www.w3.org/1999/xlink" x="0px" y="0px"
	 viewBox="0 0 126 126" style="enable-background:new 0 0 126 126;" xml:space="preserve">
<style type="text/css">
	.st0{fill:none;stroke:#000000;stroke-width:2;stroke-miterlimit:10;}
</style>
<circle class="st0" cx="64" cy="62.8" r="60.8"/>
<path class="st0" d="M112,81v-2.1c0-25.8-20.9-46.7-46.7-46.7S18.6,53.1,18.6,78.9V81"/>
<path class="st0" d="M104.6,81v-2.1c0-21.7-17.6-39.3-39.3-39.3S26,57.2,26,78.9V81"/>
<path class="st0" d="M97.1,81v-2.1C97.1,61.3,82.8,47,65.2,47S33.3,61.3,33.3,78.9V81"/>
<path class="st0" d="M89.7,81v-2.1c0-13.5-11-24.4-24.4-24.4c-13.5,0-24.4,11-24.4,24.4V81"/>
<path class="st0" d="M83.1,81.2v-1c0-10.5-8-19-17.9-19s-17.9,8.5-17.9,19v1"/>
<path class="st0" d="M76.3,81.2v-1c0-6.5-5-11.8-11.1-11.8s-11.1,5.3-11.1,11.8v1"/>
</svg>
