<?xml version="1.0" encoding="utf-8"?>
<!-- Generator: Adobe Illustrator 22.0.1, SVG Export Plug-In . SVG Version: 6.00 Build 0)  -->
<svg version="1.1" id="Layer_1" xmlns="http://www.w3.org/2000/svg" xmlns:xlink="http://www.w3.org/1999/xlink" x="0px" y="0px"
	 viewBox="0 0 126 126" style="enable-background:new 0 0 126 126;" xml:space="preserve">
<style type="text/css">
	.st0{fill:none;stroke:#000000;stroke-width:2;stroke-miterlimit:10;}
</style>
<g id="Mindfullness_5_">
	<circle class="st0" cx="63" cy="63" r="60.8"/>
	<g>
		<path class="st0" d="M62.5,47.4c-4.7,0-8.5-3.8-8.5-8.5s3.8-8.5,8.5-8.5s8.5,3.8,8.5,8.5S67.2,47.4,62.5,47.4z"/>
		<path class="st0" d="M66.2,94.3c-3-5.5-12.2-12.5-16.4-15.2 M72.4,95.6h19.8c5.5,0,9.9-4.4,9.9-9.9c0-4-2.3-7.4-5.7-8.9
			c0.8-0.6,1.4-1.4,1.4-2.4c0-1.6-1.3-2.8-2.8-2.8c-10.8,0-19.8-9.8-19.8-21.3h-0.3h-1.1h-4.3h-0.3H55.5h-0.1h-4.3h-1.2h-0.1
			c0,11.5-9.1,21.3-19.8,21.3c-1.6,0-2.8,1.3-2.8,2.8c0,1,0.6,2,1.4,2.4c-3.3,1.6-5.7,5-5.7,8.9c0,5.5,4.4,9.9,9.9,9.9h19.8
			 M74.5,79.2c-1.4,1-8.2,4.5-9.6,5.8 M37.3,75.9c5-1.7,9.6-5,12.5-9.2v12.5C45.5,77,40.5,76.2,37.3,75.9z M75.3,66.7
			c2.8,4.3,7.4,7.5,12.2,9.2c-3.3,0.3-7.9,1-12.2,3V66.7z"/>
		<g>
			<line class="st0" x1="62.1" y1="26.2" x2="62.1" y2="19.1"/>
			<line class="st0" x1="52.7" y1="29.4" x2="47.7" y2="24.4"/>
			<line class="st0" x1="42.7" y1="36.1" x2="49.8" y2="36.1"/>
			<line class="st0" x1="70" y1="28.4" x2="75" y2="23.4"/>
			<line class="st0" x1="75.3" y1="36.1" x2="82.3" y2="36.1"/>
		</g>
	</g>
</g>
</svg>
