<?xml version="1.0" encoding="utf-8"?>
<!-- Generator: Adobe Illustrator 22.0.1, SVG Export Plug-In . SVG Version: 6.00 Build 0)  -->
<svg version="1.1" id="Layer_1" xmlns="http://www.w3.org/2000/svg" xmlns:xlink="http://www.w3.org/1999/xlink" x="0px" y="0px"
	 viewBox="0 0 126 126" style="enable-background:new 0 0 126 126;" xml:space="preserve">
<style type="text/css">
	.st0{fill:none;stroke:#000000;stroke-width:2;stroke-miterlimit:10;}
</style>
<circle class="st0" cx="63.3" cy="63" r="60.8"/>
<path class="st0" d="M33,47.2h60.3c0.8,0,1.4-0.6,1.4-1.4c0-0.5-0.2-0.9-0.6-1.2L64,25.7c-0.4-0.3-1-0.3-1.5,0L32.3,44.6
	c-0.6,0.4-0.8,1.3-0.4,1.9C32.1,47,32.5,47.2,33,47.2z"/>
<path class="st0" d="M89.9,84.4H36.3"/>
<path class="st0" d="M89.9,87.4"/>
<path class="st0" d="M36.3,87.4"/>
<path class="st0" d="M96.1,92.6H30.2"/>
<path class="st0" d="M62.7,50.9v30.9"/>
<path class="st0" d="M74.3,50.9v30.9"/>
<path class="st0" d="M85.9,50.8v30.9"/>
<path class="st0" d="M51,50.9v30.9"/>
<path class="st0" d="M39.4,50.9v30.9"/>
</svg>
