<?xml version="1.0" encoding="utf-8"?>
<!-- Generator: Adobe Illustrator 22.0.1, SVG Export Plug-In . SVG Version: 6.00 Build 0)  -->
<svg version="1.1" id="Layer_1" xmlns="http://www.w3.org/2000/svg" xmlns:xlink="http://www.w3.org/1999/xlink" x="0px" y="0px"
	 viewBox="0 0 126 126" style="enable-background:new 0 0 126 126;" xml:space="preserve">
<style type="text/css">
	.st0{fill:none;stroke:#000000;stroke-width:2;stroke-miterlimit:10;}
</style>
<g id="Painting_5_">
	<g>
		<g>
			<path class="st0" d="M66,110.8L66,110.8c-18.4,0-35.6-12.9-43.6-32.9c-7.9-19.5-1.1-35.4,2.2-41.3c4.3-7.7,10.2-13.1,15.6-14
				c1.8-0.3,3.5-0.5,5-0.5c8.8,0,13.7,5.4,15.4,17.1c1.9,12.6,7.6,16.6,17.6,19.7c1.2,0.4,2.4,0.5,3.7,0.5c2.1,0,4.2-0.5,6.3-0.9
				c2-0.4,3.8-0.9,5.6-0.9c3.7,0,6.5,1.8,8.7,5.7c2.6,4.4,3,10.6,1.1,17.2c-2.9,10.7-10.8,20.5-21,26.1
				C77.7,109.4,72,110.8,66,110.8z"/>
		</g>
		<g>
			<path class="st0" d="M47.5,50.2c-3.5,0-7.2-3.1-9.2-7.8c-1.2-2.7-1.6-5.5-1.3-8c0.4-2.6,1.7-4.5,3.6-5.4c0.7-0.3,1.4-0.4,2.1-0.4
				c3.5,0,7.2,3.1,9.2,7.8c2.5,5.8,1.5,11.7-2.3,13.3C48.9,50,48.2,50.2,47.5,50.2z"/>
		</g>
		<g>
			<path class="st0" d="M31.4,64.2c-3.7,0-6.8-3-6.8-6.8c0-3.7,3-6.8,6.8-6.8c3.7,0,6.8,3,6.8,6.8S35.2,64.2,31.4,64.2z"/>
		</g>
		<g>
			<path class="st0" d="M39.3,86.4c-3.7,0-6.8-3-6.8-6.8c0-3.7,3-6.8,6.8-6.8c3.7,0,6.8,3,6.8,6.8C46.1,83.4,43,86.4,39.3,86.4z"/>
		</g>
		<g>
			<path class="st0" d="M56,101.4c-3.7,0-6.8-3-6.8-6.8c0-3.7,3-6.8,6.8-6.8s6.8,3,6.8,6.8C62.8,98.4,59.7,101.4,56,101.4z"/>
		</g>
		<g>
			<path class="st0" d="M78.9,100.1c-3.7,0-6.8-3-6.8-6.8c0-3.7,3-6.8,6.8-6.8c3.7,0,6.8,3,6.8,6.8S82.7,100.1,78.9,100.1z"/>
		</g>
		<g>
			<path class="st0" d="M90.4,80.7c-3.7,0-6.8-3-6.8-6.8c0-3.7,3-6.8,6.8-6.8c3.7,0,6.8,3,6.8,6.8C97.2,77.6,94.2,80.7,90.4,80.7z"
				/>
		</g>
	</g>
	<circle class="st0" cx="63" cy="63" r="60.8"/>
</g>
</svg>
