<?xml version="1.0" encoding="utf-8"?>
<!-- Generator: Adobe Illustrator 22.0.1, SVG Export Plug-In . SVG Version: 6.00 Build 0)  -->
<svg version="1.1" id="Layer_1" xmlns="http://www.w3.org/2000/svg" xmlns:xlink="http://www.w3.org/1999/xlink" x="0px" y="0px"
	 viewBox="0 0 126 126" style="enable-background:new 0 0 126 126;" xml:space="preserve">
<style type="text/css">
	.st0{fill:none;stroke:#000000;stroke-width:2;stroke-miterlimit:10;}
</style>
<g id="Paw_5_">
	<circle class="st0" cx="63" cy="63" r="60.8"/>
	<g>
		<path class="st0" d="M33.8,68.3c2.7-0.4,4.6-1.4,5.8-3.1c1.9-2.8,1.1-6.8,0-11c-2.1-8-7.1-12.4-12.5-11c-2.8,0.7-4.7,3-5.3,6.5
			c-0.6,3.3,0.1,7.1,0.8,9.7c1.6,6.2,4.6,9.2,9.3,9.2C32.5,68.5,33.1,68.4,33.8,68.3z"/>
		<path class="st0" d="M49.8,54.7c1.1,0,2.5-0.4,3.9-1.6c4.6-3.8,6.3-8.6,5.1-14.5c-0.7-3.4-2-6.3-3.8-8.3c-2.1-2.3-4.8-3.3-7.5-2.7
			c-5.4,1.1-8.4,7.7-6.9,15C41.5,47.2,44,53,48,54.4C48.5,54.6,49.2,54.7,49.8,54.7z"/>
		<path class="st0" d="M31.1,87.7c0,5,3.4,10.8,13,10.8c4.2,0,6.9-0.3,9.2-0.6c1.8-0.2,3.3-0.4,5.2-0.4s4.3,0.2,7,0.4
			c3.4,0.3,7.3,0.5,11.5,0.5c7.3,0,11-3.6,11-10.8c0-5.4-3-12.2-9.6-14.6c-2.5-0.9-2.9-2.4-3.4-4.8c-0.4-1.9-0.9-4.3-2.8-6.3
			c-4-4.3-10.7-3.7-11.8-3.5c-1,0-6.6,0.4-10.4,4.5c-1.2,1.3-2.2,2.6-3.1,3.9c-1.9,2.6-3.5,4.9-7.2,6.2
			C31.1,76.7,31.1,82.8,31.1,87.7z"/>
		<path class="st0" d="M100.4,49.3c-2.2-1.8-5.2-2.3-8.5-1.4c-3,0.8-5.9,2.8-8.2,5.6c-3.6,4.3-5.4,10.6,0.1,15.2
			c1.5,1.3,3.5,1.9,5.7,1.9c4.1,0,8.8-2.2,12-6c2.3-2.8,3.3-5.7,2.9-8.5C104.1,53.4,102.7,51.1,100.4,49.3z"/>
		<path class="st0" d="M76,27.6c-5.4-0.7-10.4,4.4-11.3,11.6c-0.9,6.8,1,9.8,4.9,12.8c1.2,0.9,2.5,1.4,3.9,1.4
			c0.9,0,1.8-0.2,2.7-0.5c3.8-1.5,7.1-6.3,7.8-11C84.8,34.5,81.4,28.3,76,27.6z"/>
	</g>
</g>
</svg>
