<?xml version="1.0" encoding="utf-8"?>
<!-- Generator: Adobe Illustrator 22.0.1, SVG Export Plug-In . SVG Version: 6.00 Build 0)  -->
<svg version="1.1" id="Layer_1" xmlns="http://www.w3.org/2000/svg" xmlns:xlink="http://www.w3.org/1999/xlink" x="0px" y="0px"
	 viewBox="0 0 126 126" style="enable-background:new 0 0 126 126;" xml:space="preserve">
<style type="text/css">
	.st0{fill:none;stroke:#000000;stroke-width:2;stroke-miterlimit:10;}
</style>
<g>
	<circle cx="63" cy="63" r="60.8"/>
	<g>
		<path d="M32.1,98.2l8.9-6.5h24l8.9,6.5 M64.4,91.7h11.5c1.7,0,3.4-0.7,4.6-1.9l22.6-22.4c2.6-2.6,2.6-6.7,0.1-9.3
			c-2.6-2.6-6.7-2.6-9.3-0.1L73.2,78.5H30.3c-3.6,0-6.6,3-6.6,6.6s3,6.6,6.6,6.6H41"/>
		<path d="M72.4,40.1c0-5-4-9-9-9s-9,4-9,9s4,9,9,9S72.4,45.1,72.4,40.1z"/>
		<path d="M63.4,63.1v-6"/>
		<path d="M63.4,17.2v6"/>
		<path d="M64.4,17.2"/>
		<path d="M64.4,23.2"/>
		<path d="M40.5,41.1h6"/>
		<path d="M86.3,40.1h-6"/>
		<path d="M86.3,41.1"/>
		<path d="M80.3,41.1"/>
		<path d="M47.9,57l4.2-4.2"/>
		<path d="M78.9,23.3l-4.2,4.2"/>
		<path d="M50.7,28.9"/>
		<path d="M46.5,24.7"/>
		<path d="M52.1,27.5l-4.2-4.2"/>
		<path d="M80.3,55.6l-4.2-4.2"/>
	</g>
</g>
</svg>
