<?xml version="1.0" encoding="utf-8"?>
<!-- Generator: Adobe Illustrator 22.0.1, SVG Export Plug-In . SVG Version: 6.00 Build 0)  -->
<svg version="1.1" id="Layer_1" xmlns="http://www.w3.org/2000/svg" xmlns:xlink="http://www.w3.org/1999/xlink" x="0px" y="0px"
	 viewBox="0 0 126 126" style="enable-background:new 0 0 126 126;" xml:space="preserve">
<style type="text/css">
	.st0{fill:none;stroke:#000000;stroke-width:2;stroke-miterlimit:10;}
	.st1{fill:#C2185B;stroke:#000000;stroke-width:2;stroke-miterlimit:10;}
</style>
<circle class="st0" cx="62.7" cy="62.8" r="60.8"/>
<path class="st0" d="M98.4,31.8c-0.2-1.3-1-2.5-2.3-3c-3.5-1.7-12.8-5.3-23.8-3.4c-11.1,1.9-18.7,8.3-21.4,11.1
	c-0.9,0.9-1.4,2.3-1.1,3.7c0.5,2.6,1.2,5.2,2.1,7.9c-10.6-1-19.2,2.8-22.4,4.5c-1.2,0.6-1.9,1.8-2.1,3.2
	c-1.7,16.8,4.1,41.1,19.5,43.1c11.5,1.4,21-10.7,26-23.8c2.6,0.9,5.2,1.2,8,0.8C96.1,73.1,100.8,48.4,98.4,31.8z M87.8,59.1
	c-2-4-6.4-6.2-10.8-5.5c-1.8,0.3-3.5,1.1-4.8,2.2c-6.2-5-9.5-6.8-20.3-7.9 M72.8,74.9c1.1-3.3,2.9-10.1,3.3-13.2c0.2-1.3-3-5-4-5.8"
	/>
<path class="st0" d="M39.5,78.4c0.8,4.4,4.4,7.8,8.8,8.3c4.4,0.5,8.7-1.8,10.6-5.9"/>
<path class="st0" d="M48.7,66.6c-0.5-2.6-2.6-4.6-5.2-4.9c-2.6-0.3-5.1,1.1-6.2,3.5"/>
<path class="st0" d="M64.4,68.6c-0.5-2.7-2.6-4.7-5.2-5c-2.6-0.3-5.1,1.1-6.2,3.5"/>
<path class="st0" d="M80.4,40.2"/>
<path class="st1" d="M85,39.4"/>
<path class="st0" d="M77.3,41.8c1.2,2.3,3.7,3.7,6.4,3.2c2.6-0.5,4.6-2.5,5-5.1"/>
<path class="st0" d="M61.6,44.5c1.2,2.3,3.7,3.7,6.4,3.2c2.6-0.5,4.6-2.5,5-5.1"/>
</svg>
