<?xml version="1.0" encoding="utf-8"?>
<!-- Generator: Adobe Illustrator 22.0.1, SVG Export Plug-In . SVG Version: 6.00 Build 0)  -->
<svg version="1.1" id="Layer_1" xmlns="http://www.w3.org/2000/svg" xmlns:xlink="http://www.w3.org/1999/xlink" x="0px" y="0px"
	 viewBox="0 0 126 126" style="enable-background:new 0 0 126 126;" xml:space="preserve">
<style type="text/css">
	.st0{fill:none;stroke:#000000;stroke-width:2;stroke-miterlimit:10;}
</style>
<g id="Cocktail_5_">
	<circle class="st0" cx="63" cy="63" r="60.8"/>
	<g>
		<line class="st0" x1="56.3" y1="106.6" x2="56.3" y2="78.2"/>
		<path class="st0" d="M45.1,106.6h22.5 M56.3,78.2l16.3-23.6c8.1,4.3,18.1,1.3,22.4-6.8s1.3-18.1-6.8-22.4c-2.3-1.3-4.9-1.9-7.6-2
			c-8.4,0-15.5,6.3-16.5,14.6H32c-1,0-1.8,0.9-1.8,1.9c0,0.3,0.1,0.7,0.3,1L56.3,78.2 M76.3,49.3h-40 M72.6,54.6l9.6-13.7
			c0.6-0.9,0.3-2-0.5-2.6c-0.3-0.2-0.6-0.3-1-0.3H64.2"/>
	</g>
</g>
</svg>
