<?xml version="1.0" encoding="utf-8"?>
<!-- Generator: Adobe Illustrator 22.0.1, SVG Export Plug-In . SVG Version: 6.00 Build 0)  -->
<svg version="1.1" id="Layer_1" xmlns="http://www.w3.org/2000/svg" xmlns:xlink="http://www.w3.org/1999/xlink" x="0px" y="0px"
	 viewBox="0 0 126 126" style="enable-background:new 0 0 126 126;" xml:space="preserve">
<style type="text/css">
	.st0{fill:none;stroke:#000000;stroke-width:2;stroke-miterlimit:10;}
</style>
<circle class="st0" cx="63" cy="63" r="60.8"/>
<path class="st0" d="M52.1,24.4c-17.3,4.7-29.3,20.4-29.3,38.4c0,18.4,12.5,34.3,30.4,38.7c0.1,0,0.2,0,0.2,0"/>
<path class="st0" d="M51.5,24.5c-17,4.9-28.7,20.4-28.7,38.3c0,18.4,12.5,34.3,30.4,38.7c0.1,0,0.2,0,0.2,0"/>
<path class="st0" d="M47.6,23.3c0,0.1,0,0.3,0.2,0.3l3.7,1l-2.4,2.9c-0.1,0.1-0.1,0.3,0,0.4s0.3,0.1,0.4,0l2.7-3.2
	c0.1-0.1,0.1-0.2,0-0.2c0-0.1-0.1-0.1-0.2-0.2l-4.1-1.1h-0.1C47.6,23.2,47.6,23.2,47.6,23.3z"/>
<path class="st0" d="M72.5,101.6c0.1,0,0.2,0,0.2,0C90.6,97.2,103,81.3,103,62.9c0-18-12-33.7-29.3-38.4"/>
<path class="st0" d="M73.1,101.4c17.7-4.5,30-20.3,30-38.6c0-18-12-33.7-29.3-38.4"/>
<path class="st0" d="M77,103c0-0.1,0-0.3-0.2-0.3l-3.6-1.3l2.7-2.7c0.1-0.1,0.1-0.3,0-0.4s-0.3-0.1-0.4,0l-3,3
	c-0.1,0.1-0.1,0.1-0.1,0.2s0.1,0.2,0.2,0.2l4,1.4h0.1C76.9,103.2,77,103.1,77,103z"/>
<path class="st0" d="M72,86.4c5-1.5,9-4.8,11.2-9.1c6.2-12.2-0.4-36.6-0.7-37.7l0,0c0-0.1-0.1-0.2-0.1-0.3v-0.1
	c-0.1-0.1-0.2-0.2-0.3-0.3l0,0l0,0H82c-0.1,0-0.2-0.1-0.3-0.1h-0.1c-0.1,0-0.2,0-0.3,0l0,0C80.3,39.2,56.1,49.1,50,61
	c-4.9-2.1-9.5-3.1-9.9-3.2l0,0c-0.1,0-0.2,0-0.3,0h-0.1c-0.1,0-0.3,0.1-0.4,0.2l0,0l0,0l0,0c-0.1,0.1-0.2,0.2-0.2,0.3v0.1
	c0,0.1-0.1,0.2-0.1,0.3l0,0c-0.1,0.7-1.8,16.4,3,23.3c1.8,2.6,4.5,4.3,7.6,4.8c0.7,0.1,1.3,0.2,2,0.2c2.1,0,4.2-0.6,6.1-1.7l0,0
	c2.6,1.3,5.5,2,8.5,2C68,87.3,70,87,72,86.4z M63.8,74.4l18.6-35.2 M57.5,85.3c-1.8,0.9,4.6-3,5.9-6.8c1.7-5.3-1.8-9.1-2.4-9.9
	c-2-2.8-7.4-5.8-11-7.5 M39.1,58.1l18.8,25.7"/>
</svg>
