<?xml version="1.0" encoding="utf-8"?>
<!-- Generator: Adobe Illustrator 22.0.1, SVG Export Plug-In . SVG Version: 6.00 Build 0)  -->
<svg version="1.1" id="Layer_1" xmlns="http://www.w3.org/2000/svg" xmlns:xlink="http://www.w3.org/1999/xlink" x="0px" y="0px"
	 viewBox="0 0 126 126" style="enable-background:new 0 0 126 126;" xml:space="preserve">
<style type="text/css">
	.st0{fill:none;stroke:#000000;stroke-width:2;stroke-miterlimit:10;}
</style>
<g id="Games_5_">
	<circle class="st0" cx="63" cy="63" r="60.8"/>
	<path class="st0" d="M88.1,29.5c-1.1,0-2.3,0.2-3.3,0.7l-18.2,7.5c-4.4,1.8-6.5,6.9-4.6,11.2l7.5,18.2c1.8,4.4,6.9,6.5,11.2,4.7
		l18.2-7.5c4.4-1.8,6.5-6.9,4.6-11.2L96,34.9C94.7,31.5,91.5,29.5,88.1,29.5z M86.2,39.8c-1.4,0-2.6,1.2-2.6,2.6
		c0,1.4,1.2,2.6,2.6,2.6s2.6-1.2,2.6-2.6C88.8,40.9,87.6,39.8,86.2,39.8z M74.2,44.9c-1.4,0-2.6,1.2-2.6,2.6s1.2,2.6,2.6,2.6l0,0
		c1.4,0,2.6-1.2,2.6-2.6l0,0C76.7,46.1,75.6,44.9,74.2,44.9z M91.3,51.8c-1.4,0-2.6,1.2-2.6,2.6c0,1.4,1.2,2.6,2.6,2.6
		c1.4,0,2.6-1.2,2.6-2.6C93.9,53,92.8,51.8,91.3,51.8z M37.8,55.3c-3.3,0-6.5,2-7.9,5.3l-7.5,18.2c-1.8,4.4,0.3,9.4,4.6,11.2
		l18.2,7.5c4.4,1.8,9.4-0.3,11.2-4.7l7.5-18.2c1.8-4.4-0.3-9.4-4.6-11.2l-18.2-7.5C40.1,55.5,39,55.2,37.8,55.3z M79.3,57
		c-1.4,0-2.6,1.2-2.6,2.6c0,1.4,1.2,2.6,2.6,2.6c1.4,0,2.6-1.2,2.6-2.6C81.9,58.1,80.7,57,79.3,57z M40.2,63.6
		c-1.4,0-2.6,1.2-2.6,2.6c0,1.4,1.2,2.6,2.6,2.6c1.4,0,2.6-1.2,2.6-2.6C42.8,64.7,41.6,63.6,40.2,63.6z M52.9,68.8
		c-1.4,0-2.6,1.2-2.6,2.6c0,1.4,1.2,2.6,2.6,2.6l0,0c1.4,0,2.6-1.2,2.6-2.6l0,0C55.5,70,54.3,68.8,52.9,68.8z M36.9,71.5
		c-1.4,0-2.6,1.2-2.6,2.6c0,1.4,1.2,2.6,2.6,2.6c1.4,0,2.6-1.2,2.6-2.6l0,0C39.5,72.7,38.3,71.5,36.9,71.5L36.9,71.5z M49.6,76.8
		c-1.4,0-2.6,1.2-2.6,2.6l0,0c0,1.4,1.2,2.6,2.6,2.6l0,0c1.4,0,2.6-1.2,2.6-2.6C52.2,77.9,51,76.8,49.6,76.8z M33.6,79.4
		c-1.4,0-2.6,1.2-2.6,2.6s1.2,2.6,2.6,2.6c1.4,0,2.6-1.2,2.6-2.6S35,79.4,33.6,79.4z M46.3,84.7c-1.4,0-2.6,1.2-2.6,2.6
		s1.2,2.6,2.6,2.6c1.4,0,2.6-1.2,2.6-2.6C48.9,85.9,47.7,84.7,46.3,84.7z"/>
</g>
</svg>
