<?xml version="1.0" encoding="utf-8"?>
<!-- Generator: Adobe Illustrator 22.0.1, SVG Export Plug-In . SVG Version: 6.00 Build 0)  -->
<svg version="1.1" id="Layer_1" xmlns="http://www.w3.org/2000/svg" xmlns:xlink="http://www.w3.org/1999/xlink" x="0px" y="0px"
	 viewBox="0 0 126 126" style="enable-background:new 0 0 126 126;" xml:space="preserve">
<style type="text/css">
	.st0{fill:none;stroke:#000000;stroke-width:2;stroke-miterlimit:10;}
</style>
<g id="Water_sports_5_">
	<circle class="st0" cx="63" cy="63" r="60.8"/>
	<g transform="translate(0,-952.36218)">
		<path class="st0" d="M104.3,984c0,0.5-0.2,1-0.6,1.4l-7.9,8c-0.4,0.4-1,0.6-1.6,0.6l-4.7-0.4l-7.1,7.1c6.6,2.8,13.3,7.2,20,13.1
			c1.2,1.1,1.2,2.3-0.1,3.4c-13.1,11.5-26,17.2-38.7,17c-4.3,0-8.5-0.7-12.7-2.1l-8,8c0.1,1.6,0.2,3.3,0.4,4.9c0,0.5-0.2,1-0.6,1.4
			l-7.9,7.9c-0.7,0.7-2,0.7-2.8,0l-6-6c-0.7-0.7-0.7-2.1,0-2.8l7.9-7.9c0.4-0.4,1-0.6,1.6-0.6l4.7,0.4l6.7-6.8
			c-6.7-2.9-13.3-7.4-19.6-13.4c-1.2-1.2-1.2-2.2-0.1-3.4c11.6-11,23.7-17,36.4-17.1c4.9-0.1,9.8,0.8,14.7,2.4l8.3-8.4l-0.4-4.7
			c0-0.6,0.2-1.1,0.6-1.5l7.9-7.9c0.7-0.7,2.1-0.7,2.8,0l6,6C104.1,983,104.3,983.5,104.3,984L104.3,984z M74.8,1008.4
			c1.2,0.3,2.3,0.5,3.3,0.9c1.7,0.6,3.2,1.3,4.4,2.2c1.2,0.9,2.1,2.3,2.1,3.9s-1,2.9-2.1,3.9c-1.2,0.9-2.6,1.7-4.4,2.3
			c-3.5,1.2-8.1,1.8-13.1,1.8c-1.7,0-3.4-0.1-5-0.2 M47.1,1030.5l8.1-8.1c-1.2-0.3-2.4-0.5-3.4-0.9c-1.7-0.6-3.2-1.3-4.4-2.3
			c-1.2-0.9-2.1-2.3-2.1-3.9s1-2.9,2.1-3.9c1.2-0.9,2.6-1.6,4.4-2.2c3.5-1.2,8.1-1.9,13.2-1.9c1.7,0,3.4,0.1,5,0.2l8.6-8.6"/>
	</g>
</g>
</svg>
