<?xml version="1.0" encoding="utf-8"?>
<!-- Generator: Adobe Illustrator 22.0.1, SVG Export Plug-In . SVG Version: 6.00 Build 0)  -->
<svg version="1.1" id="Layer_1" xmlns="http://www.w3.org/2000/svg" xmlns:xlink="http://www.w3.org/1999/xlink" x="0px" y="0px"
	 viewBox="0 0 126 126" style="enable-background:new 0 0 126 126;" xml:space="preserve">
<style type="text/css">
	.st0{fill:none;stroke:#000000;stroke-width:2;stroke-miterlimit:10;}
</style>
<circle class="st0" cx="63.4" cy="62.4" r="60.8"/>
<line class="st0" x1="49" y1="35.8" x2="95" y2="26"/>
<path class="st0" d="M95,72.1c0-12-9.6-13.1-13.1-13.1c-7.3,0-13.1,5.9-13.1,13.1s5.9,13.1,13.1,13.1S95,79.3,95,72.1L95,72.1
	L95,72.1v-47 M49,86.3c0-9.7-9.5-12.4-13-12.4c-7.2,0.1-13,6-13,13.3c0,7.2,5.8,13.1,13,13.1s13-5.9,13-13.1
	C49,86.9,49,86.6,49,86.3V86V34.8"/>
</svg>
