<?xml version="1.0" encoding="utf-8"?>
<!-- Generator: Adobe Illustrator 22.0.1, SVG Export Plug-In . SVG Version: 6.00 Build 0)  -->
<svg version="1.1" id="Layer_1" xmlns="http://www.w3.org/2000/svg" xmlns:xlink="http://www.w3.org/1999/xlink" x="0px" y="0px"
	 viewBox="0 0 126 126" style="enable-background:new 0 0 126 126;" xml:space="preserve">
<style type="text/css">
	.st0{fill:none;stroke:#000000;stroke-width:2;stroke-miterlimit:10;}
</style>
<circle class="st0" cx="62.7" cy="62.8" r="60.8"/>
<path class="st0" d="M75.7,100.6l-0.4-11.1l12.6,0.8c0.6,0.1,1.1-0.4,1.2-0.9l3.1-14.8l8.8-0.9c0.4,0,0.7-0.3,0.8-0.4
	c0.1-0.1,0.3-0.4,0.3-0.9c0-0.1,0-0.2-0.1-0.3l-9.5-24.4v-0.5c-0.4-15.1-14.2-27.9-30-27.9c-12.5,0-24.4,8-28.3,19l-0.1,0.2
	c-2.6,5.7-1.3,16.5-0.2,25.9l0.1,0.4c0.4,3,0.7,5.8,0.8,8.2c0.2,3.3,0.2,6.7-0.1,10l-1.6,16.9"/>
<path class="st0" d="M57.7,33.9L57.7,33.9c-0.7,0.1-1.1,0.6-1.1,1.2l0,0l0.1,4.3c0,0.3,0.1,0.7,0.3,0.9s0.5,0.4,0.9,0.4l2.3,0.2
	c0.1,0.2,0.2,0.5,0.4,0.7s0.3,0.5,0.5,0.7l-0.8,2.2c-0.1,0.3-0.1,0.6,0,0.9c0.1,0.3,0.3,0.6,0.6,0.7l3.7,2c0.5,0.3,1.2,0.2,1.6-0.3
	v-0.1l1.3-1.9c0.5,0.1,1.1,0.1,1.6,0l1.4,1.8c0.4,0.5,1,0.7,1.6,0.4l3.6-2.2c0.5-0.3,0.7-1,0.4-1.6l-1-2.1c0.3-0.4,0.6-0.9,0.8-1.4
	l2.3-0.3h0.1c0.6-0.1,1-0.6,0.9-1.2l0,0l-0.1-4.3c0-0.3-0.1-0.7-0.3-0.9s-0.6-0.4-0.9-0.4l-2.2-0.2c-0.1-0.2-0.2-0.5-0.4-0.7
	S75,32.2,74.9,32l0.9-2.2c0.1-0.3,0.1-0.6,0-0.9s-0.3-0.6-0.6-0.7l-3.7-2C71.2,26,70.9,26,70.6,26c-0.3,0.1-0.5,0.2-0.7,0.4v0.1
	l-1.3,1.9c-0.5-0.1-1.1-0.1-1.6,0l-1.5-1.9c-0.4-0.5-1.1-0.7-1.6-0.4l-3.6,2.2c-0.6,0.3-0.8,1-0.5,1.6l1,2.1
	c-0.3,0.4-0.5,0.9-0.8,1.4L57.7,33.9z"/>
<path class="st0" d="M40.8,49L40.8,49c-0.6,0.1-0.9,0.5-0.9,1l0,0l0.1,3.7c0,0.3,0.1,0.6,0.3,0.8s0.5,0.3,0.8,0.3l2,0.1
	c0.1,0.2,0.2,0.4,0.3,0.6s0.3,0.4,0.4,0.6L43.1,58c-0.1,0.2-0.1,0.5,0,0.8s0.3,0.5,0.5,0.6l3.2,1.7c0.4,0.3,1,0.2,1.4-0.2v-0.1
	l1.1-1.7c0.5,0,0.9,0,1.4,0l1.2,1.6c0.3,0.4,0.9,0.6,1.4,0.3l3.1-1.9c0.4-0.3,0.6-0.9,0.3-1.4l-0.9-1.8c0.3-0.4,0.5-0.8,0.7-1.2
	l2-0.3h0.1c0.5-0.1,0.8-0.5,0.8-1l0,0l-0.1-3.7c0-0.3-0.1-0.6-0.3-0.8s-0.5-0.3-0.8-0.3l-1.9-0.2c-0.1-0.2-0.2-0.4-0.3-0.6
	c-0.1-0.2-0.2-0.4-0.4-0.6l0.8-1.9c0.1-0.2,0.1-0.5,0-0.8s-0.3-0.5-0.5-0.6l-3.2-1.7c-0.2-0.2-0.5-0.2-0.8-0.1
	c-0.2,0.1-0.5,0.2-0.6,0.4l0,0l-1.1,1.7c-0.5-0.1-0.9-0.1-1.4,0l-1.3-1.6c-0.3-0.4-0.9-0.6-1.4-0.3L43,44.2
	c-0.5,0.3-0.7,0.9-0.4,1.4l0.9,1.8c-0.3,0.4-0.5,0.8-0.6,1.2L40.8,49z"/>
<circle class="st0" cx="67.9" cy="37.1" r="5.3"/>
<circle class="st0" cx="49.6" cy="51.7" r="4.2"/>
</svg>
